<svg width="25" height="25" viewBox="0 0 25 25" fill="none" xmlns="http://www.w3.org/2000/svg">
<g clip-path="url(#clip0_2294_157)">
<path d="M14.8438 20.3125V15.625C14.8438 15.4178 14.7614 15.2191 14.6149 15.0726C14.4684 14.9261 14.2697 14.8437 14.0625 14.8437H10.9375C10.7303 14.8437 10.5316 14.9261 10.3851 15.0726C10.2386 15.2191 10.1562 15.4178 10.1562 15.625V20.3125C10.1562 20.5197 10.0739 20.7184 9.92743 20.8649C9.78091 21.0114 9.5822 21.0937 9.375 21.0937H4.6875C4.4803 21.0937 4.28159 21.0114 4.13507 20.8649C3.98856 20.7184 3.90625 20.5197 3.90625 20.3125V11.2793C3.908 11.1712 3.93136 11.0645 3.97497 10.9655C4.01858 10.8666 4.08154 10.7774 4.16016 10.7031L11.9727 3.60351C12.1167 3.47175 12.3048 3.39868 12.5 3.39868C12.6952 3.39868 12.8833 3.47175 13.0273 3.60351L20.8398 10.7031C20.9185 10.7774 20.9814 10.8666 21.025 10.9655C21.0686 11.0645 21.092 11.1712 21.0938 11.2793V20.3125C21.0938 20.5197 21.0114 20.7184 20.8649 20.8649C20.7184 21.0114 20.5197 21.0937 20.3125 21.0937H15.625C15.4178 21.0937 15.2191 21.0114 15.0726 20.8649C14.9261 20.7184 14.8438 20.5197 14.8438 20.3125Z" stroke="#757575" stroke-width="1.4" stroke-linecap="round" stroke-linejoin="round"/>
</g>
<defs>
<clipPath id="clip0_2294_157">
<rect width="25" height="25" fill="white"/>
</clipPath>
</defs>
</svg>
