<svg width="64" height="64" viewBox="0 0 64 64" fill="none" xmlns="http://www.w3.org/2000/svg">
<path d="M4.70605 32.9412C4.70605 47.4955 16.5047 59.2941 31.059 59.2941C45.6133 59.2941 57.4119 47.4955 57.4119 32.9412C57.4119 18.3869 45.6133 6.58826 31.059 6.58826C16.5047 6.58826 4.70605 18.3869 4.70605 32.9412Z" fill="#4D8DE7"/>
<path d="M26.3527 36.7059C30.511 36.7059 33.8821 33.3349 33.8821 29.1765C33.8821 25.0181 30.511 21.6471 26.3527 21.6471C22.1943 21.6471 18.8232 25.0181 18.8232 29.1765C18.8232 33.3349 22.1943 36.7059 26.3527 36.7059Z" stroke="white" stroke-width="4" stroke-miterlimit="10"/>
<path d="M34.8232 21.9222C35.4778 21.7417 36.1527 21.6492 36.8309 21.6471C38.7946 21.6471 40.6779 22.4404 42.0664 23.8524C43.4549 25.2644 44.235 27.1796 44.235 29.1765C44.235 31.1734 43.4549 33.0886 42.0664 34.5006C40.6779 35.9126 38.7946 36.7059 36.8309 36.7059" stroke="white" stroke-width="4" stroke-linecap="round" stroke-linejoin="round"/>
<path d="M15.0586 42.353C16.2261 40.6086 17.7763 39.1848 19.5782 38.2019C21.3802 37.219 23.3809 36.7059 25.4115 36.7059C27.4421 36.7059 29.4429 37.219 31.2448 38.2019C33.0468 39.1848 34.597 40.6086 35.7645 42.353" stroke="white" stroke-width="4" stroke-linecap="round" stroke-linejoin="round"/>
<path d="M37.6475 36.7059C39.6782 36.7046 41.6794 37.2171 43.4815 38.2001C45.2837 39.1831 46.8337 40.6076 48.0004 42.353" stroke="white" stroke-width="4" stroke-linecap="round" stroke-linejoin="round"/>
</svg>
