<svg width="24" height="25" viewBox="0 0 24 25" fill="none" xmlns="http://www.w3.org/2000/svg">
<rect y="0.5" width="24" height="24" rx="4" fill="white"/>
<path d="M11.7454 9.64559L8.44506 15.0423C8.41704 15.0878 8.40164 15.1399 8.40046 15.1932C8.39928 15.2466 8.41236 15.2993 8.43835 15.3459C8.46434 15.3925 8.50229 15.4314 8.5483 15.4585C8.59431 15.4855 8.64671 15.4998 8.70009 15.4999H15.3007C15.3541 15.4998 15.4065 15.4855 15.4525 15.4585C15.4985 15.4314 15.5364 15.3925 15.5624 15.3459C15.5884 15.2993 15.6015 15.2466 15.6003 15.1932C15.5991 15.1399 15.5837 15.0878 15.5557 15.0423L12.2554 9.64559C12.2292 9.60127 12.1919 9.56455 12.1472 9.53904C12.1025 9.51354 12.0519 9.50012 12.0004 9.50012C11.9489 9.50012 11.8983 9.51354 11.8536 9.53904C11.8089 9.56455 11.7716 9.60127 11.7454 9.64559Z" fill="#000E3E"/>
</svg>
