<svg width="24" height="25" viewBox="0 0 24 25" fill="none" xmlns="http://www.w3.org/2000/svg">
<rect y="0.5" width="24" height="24" rx="4" fill="white"/>
<path d="M12.2546 15.3544L15.5549 9.95766C15.583 9.91223 15.5984 9.86015 15.5995 9.80678C15.6007 9.75342 15.5876 9.7007 15.5617 9.65408C15.5357 9.60745 15.4977 9.56861 15.4517 9.54154C15.4057 9.51448 15.3533 9.50018 15.2999 9.50012H8.69931C8.64593 9.50018 8.59353 9.51448 8.54752 9.54154C8.50151 9.56861 8.46356 9.60745 8.43757 9.65408C8.41158 9.7007 8.3985 9.75342 8.39968 9.80678C8.40086 9.86015 8.41626 9.91223 8.44428 9.95766L11.7446 15.3544C11.7708 15.3987 11.8081 15.4354 11.8528 15.461C11.8975 15.4865 11.9481 15.4999 11.9996 15.4999C12.0511 15.4999 12.1017 15.4865 12.1464 15.461C12.1911 15.4354 12.2284 15.3987 12.2546 15.3544Z" fill="#000E3E"/>
</svg>
