<svg width="50" height="32" viewBox="0 0 50 32" fill="none" xmlns="http://www.w3.org/2000/svg">
<rect x="0.5" y="1" width="49" height="30" rx="3.5" fill="#F0F6FC"/>
<path d="M13.895 9.55C13.625 9.55 13.355 9.685 13.355 10V15.385C13.355 16.15 13.61 16.39 14.39 16.39H17.285V19.39H11.96C11.69 19.39 11.57 19.6 11.57 19.87C11.57 20.125 11.69 20.335 11.96 20.335H23.69C23.96 20.335 24.08 20.125 24.08 19.87C24.08 19.6 23.96 19.39 23.69 19.39H18.38V16.39H21.26C22.04 16.39 22.295 16.15 22.295 15.385V10C22.295 9.685 22.025 9.55 21.755 9.55C21.485 9.55 21.215 9.685 21.215 10V12.085H14.435V10C14.435 9.685 14.165 9.55 13.895 9.55ZM14.435 15.175V13.03H21.215V15.175C21.215 15.37 21.125 15.445 20.93 15.445H14.72C14.525 15.445 14.435 15.37 14.435 15.175ZM37.2823 15.535H25.5223C25.2673 15.535 25.1473 15.745 25.1473 16C25.1473 16.255 25.2673 16.465 25.5223 16.465H30.8623V17.95C28.3423 18.055 26.9323 18.82 26.9323 20.38C26.9323 22.045 28.5523 22.825 31.4023 22.825C34.2523 22.825 35.8723 22.045 35.8723 20.38C35.8723 18.82 34.4473 18.055 31.9423 17.95V16.465H37.2823C37.5373 16.465 37.6573 16.255 37.6573 16C37.6573 15.745 37.5373 15.535 37.2823 15.535ZM31.4023 8.62C31.1173 8.62 30.8473 8.77 30.8473 9.085V10.135H26.9773C26.7373 10.135 26.6173 10.345 26.6173 10.585C26.6173 10.84 26.7373 11.05 26.9773 11.05H30.8473V11.29C30.8473 11.995 30.4873 12.445 29.3923 12.85C28.3423 13.225 27.4573 13.54 26.5873 13.81C26.3173 13.9 26.2573 14.185 26.3323 14.425C26.4223 14.68 26.6473 14.815 26.9473 14.725C27.7873 14.44 28.6273 14.155 29.6323 13.795C30.8323 13.36 31.2973 12.925 31.4023 12.535H31.4173C31.5073 12.91 31.9873 13.345 33.1873 13.78C34.1923 14.14 35.0323 14.425 35.8723 14.71C36.1723 14.8 36.3823 14.665 36.4723 14.425C36.5473 14.185 36.4873 13.9 36.2173 13.81C35.3473 13.54 34.4623 13.225 33.4123 12.85C32.3173 12.445 31.9573 11.995 31.9573 11.29V11.05H35.8273C36.0673 11.05 36.1873 10.84 36.1873 10.585C36.1873 10.345 36.0673 10.135 35.8273 10.135H31.9573V9.085C31.9573 8.77 31.6873 8.62 31.4023 8.62ZM31.4023 18.835C33.6973 18.835 34.7773 19.375 34.7773 20.38C34.7773 21.4 33.6973 21.94 31.4023 21.94C29.1073 21.94 28.0273 21.4 28.0273 20.38C28.0273 19.375 29.1073 18.835 31.4023 18.835Z" fill="#4D8DE7"/>
<rect x="0.5" y="1" width="49" height="30" rx="3.5" stroke="#4D8DE7"/>
</svg>
