<svg width="24" height="25" viewBox="0 0 24 25" fill="none" xmlns="http://www.w3.org/2000/svg">
<path d="M9.14571 12.245L14.5425 8.9447C14.5879 8.91667 14.64 8.90128 14.6933 8.9001C14.7467 8.89892 14.7994 8.912 14.846 8.93798C14.8927 8.96397 14.9315 9.00193 14.9586 9.04794C14.9856 9.09395 14.9999 9.14634 15 9.19972V15.8003C14.9999 15.8537 14.9856 15.9061 14.9586 15.9521C14.9315 15.9981 14.8927 16.0361 14.846 16.0621C14.7994 16.0881 14.7467 16.1011 14.6933 16.1C14.64 16.0988 14.5879 16.0834 14.5425 16.0554L9.14571 12.755C9.1014 12.7288 9.06468 12.6915 9.03917 12.6468C9.01366 12.6021 9.00024 12.5515 9.00024 12.5C9.00024 12.4485 9.01366 12.3979 9.03917 12.3532C9.06468 12.3085 9.1014 12.2712 9.14571 12.245Z" fill="white"/>
<rect x="-0.5" y="0.5" width="23" height="23" rx="3.5" transform="matrix(-1 0 0 1 23 0.5)" stroke="white"/>
</svg>
