<svg width="33" height="33" viewBox="0 0 33 33" fill="none" xmlns="http://www.w3.org/2000/svg">
<g clip-path="url(#clip0_1604_17057)">
<path d="M19.5 12.5H26.5" stroke="#4D8DE7" stroke-width="2" stroke-linecap="round" stroke-linejoin="round"/>
<path d="M19.5 20.5H26.5" stroke="#4D8DE7" stroke-width="2" stroke-linecap="round" stroke-linejoin="round"/>
<path d="M8.5 9.5V5.5C8.5 5.23478 8.60536 4.98043 8.79289 4.79289C8.98043 4.60536 9.23478 4.5 9.5 4.5H25.5C25.7652 4.5 26.0196 4.60536 26.2071 4.79289C26.3946 4.98043 26.5 5.23478 26.5 5.5V27.5C26.5 27.7652 26.3946 28.0196 26.2071 28.2071C26.0196 28.3946 25.7652 28.5 25.5 28.5H9.5C9.23478 28.5 8.98043 28.3946 8.79289 28.2071C8.60536 28.0196 8.5 27.7652 8.5 27.5V23.5" stroke="#4D8DE7" stroke-width="2" stroke-linecap="round" stroke-linejoin="round"/>
<path d="M17.5 23.5V28.5" stroke="#4D8DE7" stroke-width="2" stroke-linecap="round" stroke-linejoin="round"/>
<path d="M17.5 4.5V9.5" stroke="#4D8DE7" stroke-width="2" stroke-linecap="round" stroke-linejoin="round"/>
<path d="M18.5 9.5H5.5C4.94772 9.5 4.5 9.94772 4.5 10.5V22.5C4.5 23.0523 4.94772 23.5 5.5 23.5H18.5C19.0523 23.5 19.5 23.0523 19.5 22.5V10.5C19.5 9.94772 19.0523 9.5 18.5 9.5Z" stroke="#4D8DE7" stroke-width="2" stroke-linecap="round" stroke-linejoin="round"/>
<path d="M9.75 13.5L14.25 19.5" stroke="#4D8DE7" stroke-width="2" stroke-linecap="round" stroke-linejoin="round"/>
<path d="M14.25 13.5L9.75 19.5" stroke="#4D8DE7" stroke-width="2" stroke-linecap="round" stroke-linejoin="round"/>
</g>
<defs>
<clipPath id="clip0_1604_17057">
<rect width="32" height="32" fill="white" transform="translate(0.5 0.5)"/>
</clipPath>
</defs>
</svg>
