<svg width="32" height="33" viewBox="0 0 32 33" fill="none" xmlns="http://www.w3.org/2000/svg">
<path d="M27.3625 10.1377C28.1993 10.9725 28.8631 11.9642 29.3161 13.056C29.7691 14.1478 30.0023 15.3182 30.0023 16.5002C30.0023 17.6822 29.7691 18.8526 29.3161 19.9444C28.8631 21.0362 28.1993 22.0279 27.3625 22.8627" stroke="#333333" stroke-width="2" stroke-linecap="round" stroke-linejoin="round"/>
<path d="M10 21.5H4C3.73478 21.5 3.48043 21.3946 3.29289 21.2071C3.10536 21.0196 3 20.7652 3 20.5V12.5C3 12.2348 3.10536 11.9804 3.29289 11.7929C3.48043 11.6054 3.73478 11.5 4 11.5H10L19 4.5V28.5L10 21.5Z" stroke="#333333" stroke-width="2" stroke-linecap="round" stroke-linejoin="round"/>
<path d="M10 11.5V21.5" stroke="#333333" stroke-width="2" stroke-linecap="round" stroke-linejoin="round"/>
<path d="M23.825 13.6748C24.1969 14.0453 24.492 14.4855 24.6933 14.9703C24.8947 15.4551 24.9983 15.9749 24.9983 16.4998C24.9983 17.0247 24.8947 17.5445 24.6933 18.0293C24.492 18.5141 24.1969 18.9543 23.825 19.3248" stroke="#333333" stroke-width="2" stroke-linecap="round" stroke-linejoin="round"/>
</svg>
