<svg width="24" height="25" viewBox="0 0 24 25" fill="none" xmlns="http://www.w3.org/2000/svg">
<path d="M14.8543 12.245L9.45754 8.9447C9.41211 8.91667 9.36003 8.90128 9.30666 8.9001C9.2533 8.89892 9.20058 8.912 9.15396 8.93798C9.10733 8.96397 9.06848 9.00193 9.04142 9.04794C9.01436 9.09395 9.00006 9.14634 9 9.19972V15.8003C9.00006 15.8537 9.01436 15.9061 9.04142 15.9521C9.06848 15.9981 9.10733 16.0361 9.15396 16.0621C9.20058 16.0881 9.2533 16.1011 9.30666 16.1C9.36003 16.0988 9.41211 16.0834 9.45754 16.0554L14.8543 12.755C14.8986 12.7288 14.9353 12.6915 14.9608 12.6468C14.9863 12.6021 14.9998 12.5515 14.9998 12.5C14.9998 12.4485 14.9863 12.3979 14.9608 12.3532C14.9353 12.3085 14.8986 12.2712 14.8543 12.245Z" fill="white"/>
<rect x="0.5" y="1" width="23" height="23" rx="3.5" stroke="white"/>
</svg>
