<svg width="90" height="91" viewBox="0 0 90 91" fill="none" xmlns="http://www.w3.org/2000/svg">
<g opacity="0.9">
<path d="M19.1602 71.3398C15.9258 68.1055 18.0703 61.3203 16.418 57.3477C14.7656 53.375 8.4375 49.8945 8.4375 45.5C8.4375 41.1055 14.6953 37.7656 16.418 33.6523C18.1406 29.5391 15.9258 22.8945 19.1602 19.6602C22.3945 16.4258 29.1797 18.5703 33.1523 16.918C37.125 15.2656 40.6055 8.9375 45 8.9375C49.3945 8.9375 52.7344 15.1953 56.8477 16.918C60.9609 18.6406 67.6055 16.4258 70.8398 19.6602C74.0742 22.8945 71.9297 29.6797 73.582 33.6523C75.2344 37.625 81.5625 41.1055 81.5625 45.5C81.5625 49.8945 75.3047 53.2344 73.582 57.3477C71.8594 61.4609 74.0742 68.1055 70.8398 71.3398C67.6055 74.5742 60.8203 72.4297 56.8477 74.082C52.875 75.7344 49.3945 82.0625 45 82.0625C40.6055 82.0625 37.2656 75.8047 33.1523 74.082C29.0391 72.3594 22.3945 74.5742 19.1602 71.3398Z" stroke="#4D8DE7" stroke-width="5" stroke-linecap="round" stroke-linejoin="round"/>
<path d="M60.4688 37.0625L39.832 56.75L29.5312 46.9062" stroke="#4D8DE7" stroke-width="5" stroke-linecap="round" stroke-linejoin="round"/>
</g>
</svg>
