<svg width="36" height="36" viewBox="0 0 36 36" fill="none" xmlns="http://www.w3.org/2000/svg">
<g clip-path="url(#clip0_2256_3838)">
<path d="M30.375 7.875H5.625" stroke="#AFAFAF" stroke-width="2" stroke-linecap="round" stroke-linejoin="round"/>
<path d="M14.625 14.625V23.625" stroke="#AFAFAF" stroke-width="2" stroke-linecap="round" stroke-linejoin="round"/>
<path d="M21.375 14.625V23.625" stroke="#AFAFAF" stroke-width="2" stroke-linecap="round" stroke-linejoin="round"/>
<path d="M28.125 7.875V29.25C28.125 29.5484 28.0065 29.8345 27.7955 30.0455C27.5845 30.2565 27.2984 30.375 27 30.375H9C8.70163 30.375 8.41548 30.2565 8.20451 30.0455C7.99353 29.8345 7.875 29.5484 7.875 29.25V7.875" stroke="#AFAFAF" stroke-width="2" stroke-linecap="round" stroke-linejoin="round"/>
<path d="M23.625 7.875V5.625C23.625 5.02826 23.3879 4.45597 22.966 4.03401C22.544 3.61205 21.9717 3.375 21.375 3.375H14.625C14.0283 3.375 13.456 3.61205 13.034 4.03401C12.6121 4.45597 12.375 5.02826 12.375 5.625V7.875" stroke="#AFAFAF" stroke-width="2" stroke-linecap="round" stroke-linejoin="round"/>
</g>
<defs>
<clipPath id="clip0_2256_3838">
<rect width="36" height="36" fill="white"/>
</clipPath>
</defs>
</svg>
