<svg width="56" height="20" viewBox="0 0 56 20" fill="none" xmlns="http://www.w3.org/2000/svg">
<rect x="0.5" width="55" height="20" rx="10" fill="#FF1286"/>
<path d="M12.352 5.288C10.336 5.288 9.256 6.38 9.256 7.724V7.808C9.256 9.404 10.18 9.956 12.196 10.352C13.348 10.58 13.84 10.916 13.84 11.588V11.672C13.84 12.26 13.372 12.704 12.268 12.704C11.548 12.704 10.864 12.512 10.3 12.188C9.94 11.984 9.604 12.068 9.376 12.416C9.16 12.752 9.184 13.172 9.568 13.412C10.204 13.808 11.212 14.084 12.196 14.084C14.284 14.084 15.376 13.184 15.376 11.552V11.444C15.376 10.16 14.584 9.356 12.58 8.948C11.116 8.648 10.78 8.372 10.78 7.772V7.7C10.78 7.196 11.332 6.656 12.376 6.656C13.012 6.656 13.432 6.74 13.936 6.956C14.272 7.1 14.596 7.016 14.788 6.656C14.98 6.308 14.872 5.912 14.524 5.732C13.936 5.432 13.216 5.288 12.352 5.288ZM16.5397 5.42C16.1677 5.42 15.9997 5.72 15.9997 6.068C15.9997 6.416 16.1677 6.716 16.5397 6.716H18.6157V13.364C18.6157 13.82 18.9757 14.024 19.3837 14.024C19.7917 14.024 20.1517 13.82 20.1517 13.364V6.716H22.2157C22.5877 6.716 22.7557 6.416 22.7557 6.068C22.7557 5.72 22.5877 5.42 22.2157 5.42H16.5397ZM24.7392 5.42C23.9712 5.42 23.7192 5.66 23.7192 6.416V12.956C23.7192 13.712 23.9712 13.952 24.7392 13.952H28.9152C29.2752 13.952 29.4432 13.664 29.4432 13.316C29.4432 12.98 29.2752 12.68 28.9152 12.68H25.2432V10.208H28.5912C28.9392 10.208 29.1072 9.92 29.1072 9.584C29.1072 9.248 28.9392 8.96 28.5912 8.96H25.2432V6.692H28.8312C29.1912 6.692 29.3592 6.392 29.3592 6.056C29.3592 5.708 29.1912 5.42 28.8312 5.42H24.7392ZM31.98 5.42C31.212 5.42 30.96 5.66 30.96 6.416V13.364C30.96 13.82 31.32 14.024 31.728 14.024C32.136 14.024 32.496 13.82 32.496 13.364V10.664H34.224C36.228 10.664 37.188 9.464 37.188 8.06V7.892C37.188 6.476 36.3 5.42 34.224 5.42H31.98ZM32.496 6.704H34.152C35.028 6.704 35.64 6.956 35.64 7.904V8.036C35.64 9.044 35.028 9.368 34.02 9.368H32.496V6.704ZM38.2039 12.656C37.6639 12.656 37.2559 13.064 37.2559 13.604C37.2559 14.144 37.6639 14.552 38.2039 14.552C38.7439 14.552 39.1519 14.144 39.1519 13.604C39.1519 13.064 38.7439 12.656 38.2039 12.656ZM43.3469 5.288C42.0869 5.288 41.2109 5.876 40.6829 6.656C40.4429 7.016 40.5749 7.376 40.8869 7.604C41.1989 7.832 41.5709 7.772 41.7989 7.472C42.2189 6.932 42.6629 6.656 43.3709 6.656C44.1989 6.656 44.6069 7.04 44.6069 7.568V7.628C44.6069 8.24 44.4269 8.696 43.5389 9.584L40.7549 12.392C40.5029 12.656 40.3589 12.872 40.3589 13.124C40.3589 13.688 40.6829 13.952 41.4389 13.952H46.0109C46.3829 13.952 46.5509 13.664 46.5509 13.316C46.5509 12.968 46.3829 12.68 46.0109 12.68H42.3749L44.9069 10.172C45.7109 9.368 46.1549 8.528 46.1549 7.616V7.484C46.1549 6.32 45.3029 5.288 43.3469 5.288Z" fill="white"/>
</svg>
