<svg width="226" height="125" viewBox="0 0 226 125" fill="none" xmlns="http://www.w3.org/2000/svg">
<path d="M107.13 1.7H100.5C100.245 1.7 100.125 1.91 100.125 2.165C100.125 2.435 100.245 2.645 100.5 2.645H103.305V3.74C103.305 4.76 103.02 5.39 102.255 6.005C101.505 6.605 100.815 7.115 100.095 7.625C99.825 7.805 99.84 8.105 99.99 8.315C100.14 8.51 100.41 8.63 100.665 8.45C101.25 8.045 101.97 7.52 102.66 6.965C103.455 6.335 103.785 5.9 103.86 5.57H103.875C103.95 5.885 104.28 6.305 105.06 6.935C105.765 7.475 106.455 8 106.815 8.24C107.085 8.435 107.355 8.315 107.49 8.12C107.655 7.91 107.64 7.625 107.385 7.43C106.92 7.1 106.215 6.575 105.465 5.99C104.7 5.375 104.415 4.745 104.415 3.71V2.645H107.13C107.385 2.645 107.505 2.435 107.505 2.165C107.505 1.91 107.385 1.7 107.13 1.7ZM110.25 0.889999C109.965 0.889999 109.71 1.025 109.71 1.34V4.415H107.145C106.89 4.415 106.77 4.64 106.77 4.895C106.77 5.165 106.89 5.375 107.145 5.375H109.71V8.645C109.71 8.96 109.965 9.095 110.25 9.095C110.52 9.095 110.79 8.96 110.79 8.645V1.34C110.79 1.025 110.52 0.889999 110.25 0.889999ZM106.62 9.275C103.89 9.275 102.36 10.235 102.36 12.02C102.36 13.805 103.89 14.765 106.62 14.765C109.35 14.765 110.895 13.805 110.895 12.02C110.895 10.235 109.35 9.275 106.62 9.275ZM106.62 10.175C108.795 10.175 109.815 10.88 109.815 12.02C109.815 13.16 108.795 13.865 106.62 13.865C104.46 13.865 103.44 13.16 103.44 12.02C103.44 10.88 104.46 10.175 106.62 10.175ZM119.732 1.625H114.812C114.032 1.625 113.777 1.865 113.777 2.63V6.59C113.777 7.355 114.032 7.595 114.812 7.595C117.647 7.595 119.507 7.46 121.067 7.235C121.307 7.205 121.412 6.95 121.382 6.68C121.337 6.425 121.172 6.26 120.932 6.29C119.147 6.53 117.362 6.635 115.157 6.635C114.947 6.635 114.872 6.575 114.872 6.365V2.84C114.872 2.645 114.947 2.57 115.157 2.57H119.732C120.002 2.57 120.122 2.36 120.122 2.09C120.122 1.835 120.002 1.625 119.732 1.625ZM123.077 0.889999C122.807 0.889999 122.537 1.025 122.537 1.34V7.775C122.537 8.09 122.807 8.225 123.077 8.225C123.362 8.225 123.632 8.09 123.632 7.775V5.075H125.537C125.807 5.075 125.927 4.85 125.927 4.595C125.927 4.325 125.807 4.1 125.537 4.1H123.632V1.34C123.632 1.025 123.362 0.889999 123.077 0.889999ZM115.817 8.99C115.547 8.99 115.277 9.125 115.277 9.425V13.49C115.277 14.255 115.532 14.495 116.312 14.495H122.597C123.377 14.495 123.632 14.255 123.632 13.49V9.425C123.632 9.125 123.362 8.99 123.092 8.99C122.822 8.99 122.552 9.125 122.552 9.425V10.94H116.357V9.425C116.357 9.125 116.087 8.99 115.817 8.99ZM116.357 13.295V11.855H122.552V13.295C122.552 13.505 122.477 13.58 122.267 13.58H116.642C116.432 13.58 116.357 13.505 116.357 13.295Z" fill="white"/>
<path d="M112.675 36.8527L108.457 43.7485C108.422 43.8065 108.402 43.8731 108.4 43.9413C108.399 44.0095 108.416 44.0768 108.449 44.1364C108.482 44.196 108.531 44.2456 108.589 44.2802C108.648 44.3148 108.715 44.3331 108.783 44.3331H117.217C117.286 44.3331 117.353 44.3148 117.411 44.2802C117.47 44.2456 117.519 44.196 117.552 44.1364C117.585 44.0768 117.602 44.0095 117.6 43.9413C117.599 43.8731 117.579 43.8065 117.543 43.7485L113.326 36.8527C113.293 36.796 113.245 36.7491 113.188 36.7165C113.131 36.6839 113.066 36.6668 113 36.6668C112.935 36.6668 112.87 36.6839 112.813 36.7165C112.756 36.7491 112.708 36.796 112.675 36.8527Z" fill="white"/>
<rect x="94.5" y="22" width="37" height="37" rx="3.5" stroke="white"/>
<path d="M14.59 78.185C12.34 78.185 11.17 79.73 11.17 82.58C11.17 85.43 12.34 86.975 14.59 86.975C16.84 86.975 17.995 85.43 17.995 82.58C17.995 79.73 16.84 78.185 14.59 78.185ZM14.59 79.16C16.225 79.16 16.93 80.405 16.93 82.58C16.93 84.755 16.225 86 14.59 86C12.955 86 12.25 84.755 12.25 82.58C12.25 80.405 12.955 79.16 14.59 79.16ZM21.145 77.39C20.875 77.39 20.605 77.525 20.605 77.84V89.78C20.605 90.095 20.875 90.23 21.145 90.23C21.43 90.23 21.7 90.095 21.7 89.78V77.84C21.7 77.525 21.43 77.39 21.145 77.39ZM31.7073 78.32H25.0773C24.8223 78.32 24.7023 78.53 24.7023 78.8C24.7023 79.055 24.8223 79.28 25.0773 79.28H27.8823V80.465C27.8823 81.53 27.5373 82.25 26.7573 82.91C26.0823 83.48 25.3173 84.065 24.6573 84.545C24.4023 84.74 24.4173 85.04 24.5823 85.25C24.7323 85.445 25.0023 85.55 25.2573 85.37C25.8723 84.92 26.5473 84.41 27.2223 83.84C28.0173 83.195 28.3623 82.7 28.4373 82.34H28.4523C28.5273 82.685 28.8573 83.165 29.6523 83.81C30.3423 84.365 30.9123 84.8 31.3773 85.16C31.6323 85.34 31.9173 85.265 32.0673 85.055C32.2323 84.815 32.2173 84.545 31.9773 84.365C31.4973 83.99 30.7923 83.45 30.1173 82.895C29.3373 82.22 28.9923 81.515 28.9923 80.45V79.28H31.7073C31.9623 79.28 32.0823 79.055 32.0823 78.8C32.0823 78.53 31.9623 78.32 31.7073 78.32ZM34.8273 77.39C34.5423 77.39 34.2873 77.525 34.2873 77.84V81.17H31.7223C31.4673 81.17 31.3473 81.395 31.3473 81.65C31.3473 81.92 31.4673 82.13 31.7223 82.13H34.2873V86.99C34.2873 87.305 34.5423 87.44 34.8273 87.44C35.0973 87.44 35.3673 87.305 35.3673 86.99V77.84C35.3673 77.525 35.0973 77.39 34.8273 77.39ZM27.3573 86.27C27.0723 86.27 26.8023 86.405 26.8023 86.72V89.885C26.8023 90.65 27.0573 90.89 27.8373 90.89H35.3673C35.6373 90.89 35.7573 90.665 35.7573 90.41C35.7573 90.155 35.6373 89.93 35.3673 89.93H28.1973C27.9873 89.93 27.9123 89.855 27.9123 89.66V86.72C27.9123 86.405 27.6423 86.27 27.3573 86.27Z" fill="white"/>
<rect x="-0.5" y="0.5" width="37" height="37" rx="3.5" transform="matrix(-1 0 0 1 89 65.5)" fill="white"/>
<path d="M67.3525 84.1742L74.2484 79.9571C74.3064 79.9213 74.373 79.9016 74.4412 79.9001C74.5094 79.8986 74.5767 79.9153 74.6363 79.9485C74.6959 79.9817 74.7455 80.0302 74.7801 80.089C74.8147 80.1478 74.8329 80.2148 74.833 80.283V88.7171C74.8329 88.7853 74.8147 88.8522 74.7801 88.911C74.7455 88.9698 74.6959 89.0183 74.6363 89.0515C74.5767 89.0847 74.5094 89.1014 74.4412 89.0999C74.373 89.0984 74.3064 89.0787 74.2484 89.0429L67.3525 84.8259C67.2959 84.7924 67.249 84.7447 67.2164 84.6876C67.1838 84.6305 67.1667 84.5658 67.1667 84.5C67.1667 84.4342 67.1838 84.3696 67.2164 84.3124C67.249 84.2553 67.2959 84.2076 67.3525 84.1742Z" fill="#000E3E"/>
<rect x="-0.5" y="0.5" width="37" height="37" rx="3.5" transform="matrix(-1 0 0 1 89 65.5)" stroke="white"/>
<path d="M113.325 88.1473L117.543 81.2515C117.578 81.1935 117.598 81.1269 117.6 81.0587C117.601 80.9905 117.584 80.9232 117.551 80.8636C117.518 80.804 117.469 80.7544 117.411 80.7198C117.352 80.6852 117.285 80.6669 117.217 80.6669H108.783C108.714 80.6669 108.647 80.6852 108.589 80.7198C108.53 80.7544 108.481 80.804 108.448 80.8636C108.415 80.9232 108.398 80.9905 108.4 81.0587C108.401 81.1269 108.421 81.1935 108.457 81.2515L112.674 88.1473C112.707 88.204 112.755 88.2509 112.812 88.2835C112.869 88.3161 112.934 88.3332 113 88.3332C113.065 88.3332 113.13 88.3161 113.187 88.2835C113.244 88.2509 113.292 88.204 113.325 88.1473Z" fill="white"/>
<rect x="94.5" y="66" width="37" height="37" rx="3.5" stroke="white"/>
<rect x="136.5" y="66" width="37" height="37" rx="3.5" fill="white"/>
<path d="M158.647 84.1742L151.752 79.9571C151.694 79.9213 151.627 79.9016 151.559 79.9001C151.491 79.8986 151.423 79.9153 151.364 79.9485C151.304 79.9817 151.254 80.0302 151.22 80.089C151.185 80.1478 151.167 80.2148 151.167 80.283V88.7171C151.167 88.7853 151.185 88.8522 151.22 88.911C151.254 88.9698 151.304 89.0183 151.364 89.0515C151.423 89.0847 151.491 89.1014 151.559 89.0999C151.627 89.0984 151.694 89.0787 151.752 89.0429L158.647 84.8259C158.704 84.7924 158.751 84.7447 158.784 84.6876C158.816 84.6305 158.833 84.5658 158.833 84.5C158.833 84.4342 158.816 84.3696 158.784 84.3124C158.751 84.2553 158.704 84.2076 158.647 84.1742Z" fill="#000E3E"/>
<rect x="136.5" y="66" width="37" height="37" rx="3.5" stroke="white"/>
<path d="M195.215 78.425H190.235C189.455 78.425 189.2 78.665 189.2 79.43V85.76C189.2 86.525 189.455 86.765 190.235 86.765C193.07 86.765 194.93 86.63 196.49 86.42C196.73 86.39 196.835 86.135 196.805 85.865C196.76 85.595 196.595 85.43 196.355 85.46C194.57 85.7 192.785 85.82 190.58 85.82C190.37 85.82 190.295 85.745 190.295 85.535V79.655C190.295 79.445 190.37 79.37 190.58 79.37H195.215C195.485 79.37 195.605 79.16 195.605 78.89C195.605 78.635 195.485 78.425 195.215 78.425ZM198.5 77.39C198.23 77.39 197.96 77.525 197.96 77.84V89.78C197.96 90.095 198.23 90.23 198.5 90.23C198.785 90.23 199.055 90.095 199.055 89.78V83H200.96C201.23 83 201.35 82.775 201.35 82.505C201.35 82.25 201.23 82.025 200.96 82.025H199.055V77.84C199.055 77.525 198.785 77.39 198.5 77.39ZM208.402 77.705C205.567 77.705 203.962 78.515 203.962 80.195C203.962 81.875 205.567 82.685 208.402 82.685C211.237 82.685 212.842 81.875 212.842 80.195C212.842 78.515 211.237 77.705 208.402 77.705ZM208.402 78.605C210.682 78.605 211.747 79.16 211.747 80.195C211.747 81.23 210.682 81.785 208.402 81.785C206.122 81.785 205.057 81.23 205.057 80.195C205.057 79.16 206.122 78.605 208.402 78.605ZM214.282 83.99H202.522C202.267 83.99 202.147 84.2 202.147 84.455C202.147 84.725 202.267 84.935 202.522 84.935H214.282C214.537 84.935 214.657 84.725 214.657 84.455C214.657 84.2 214.537 83.99 214.282 83.99ZM211.837 86.45H204.967C204.187 86.45 203.932 86.69 203.932 87.455V90.05C203.932 90.815 204.187 91.055 204.967 91.055H211.837C212.617 91.055 212.872 90.815 212.872 90.05V87.455C212.872 86.69 212.617 86.45 211.837 86.45ZM205.297 87.365H211.507C211.717 87.365 211.792 87.44 211.792 87.635V89.87C211.792 90.065 211.717 90.14 211.507 90.14H205.297C205.087 90.14 205.012 90.065 205.012 89.87V87.635C205.012 87.44 205.087 87.365 205.297 87.365Z" fill="white"/>
<path d="M105.825 110.445C102.96 110.445 101.34 111.81 101.34 114C101.34 116.055 102.75 117.375 105.285 117.54V120.39H99.96C99.69 120.39 99.57 120.6 99.57 120.87C99.57 121.125 99.69 121.335 99.96 121.335H111.69C111.96 121.335 112.08 121.125 112.08 120.87C112.08 120.6 111.96 120.39 111.69 120.39H106.38V117.54C108.9 117.375 110.31 116.055 110.31 114C110.31 111.81 108.69 110.445 105.825 110.445ZM105.825 111.375C108.12 111.375 109.215 112.5 109.215 114C109.215 115.5 108.12 116.625 105.825 116.625C103.53 116.625 102.435 115.5 102.435 114C102.435 112.5 103.53 111.375 105.825 111.375ZM119.732 110.625H114.812C114.032 110.625 113.777 110.865 113.777 111.63V115.59C113.777 116.355 114.032 116.595 114.812 116.595C117.647 116.595 119.507 116.46 121.067 116.235C121.307 116.205 121.412 115.95 121.382 115.68C121.337 115.425 121.172 115.26 120.932 115.29C119.147 115.53 117.362 115.635 115.157 115.635C114.947 115.635 114.872 115.575 114.872 115.365V111.84C114.872 111.645 114.947 111.57 115.157 111.57H119.732C120.002 111.57 120.122 111.36 120.122 111.09C120.122 110.835 120.002 110.625 119.732 110.625ZM123.077 109.89C122.807 109.89 122.537 110.025 122.537 110.34V116.775C122.537 117.09 122.807 117.225 123.077 117.225C123.362 117.225 123.632 117.09 123.632 116.775V114.075H125.537C125.807 114.075 125.927 113.85 125.927 113.595C125.927 113.325 125.807 113.1 125.537 113.1H123.632V110.34C123.632 110.025 123.362 109.89 123.077 109.89ZM115.817 117.99C115.547 117.99 115.277 118.125 115.277 118.425V122.49C115.277 123.255 115.532 123.495 116.312 123.495H122.597C123.377 123.495 123.632 123.255 123.632 122.49V118.425C123.632 118.125 123.362 117.99 123.092 117.99C122.822 117.99 122.552 118.125 122.552 118.425V119.94H116.357V118.425C116.357 118.125 116.087 117.99 115.817 117.99ZM116.357 122.295V120.855H122.552V122.295C122.552 122.505 122.477 122.58 122.267 122.58H116.642C116.432 122.58 116.357 122.505 116.357 122.295Z" fill="white"/>
</svg>
