<svg width="139" height="37" viewBox="0 0 139 37" fill="none" xmlns="http://www.w3.org/2000/svg">
<g clip-path="url(#clip0_2059_7908)">
<path d="M19.2439 0H0.740723V5.33305H19.2439V0Z" fill="#4D8DE7"/>
<path d="M19.2439 7.646H0.740723V12.979H19.2439V7.646Z" fill="#4D8DE7"/>
<path d="M19.2376 0H13.9045V18.5032H19.2376V0Z" fill="#4D8DE7"/>
<path d="M37.7407 0H26.0615V5.33305H37.7407V0Z" fill="#4D8DE7"/>
<path d="M37.7408 0H32.4077V11.6792H37.7408V0Z" fill="#4D8DE7"/>
<path d="M12.4199 31.6669H0.740723V36.9999H12.4199V31.6669Z" fill="#4D8DE7"/>
<path d="M6.07377 25.3208H0.740723V37H6.07377V25.3208Z" fill="#4D8DE7"/>
<path d="M37.7471 18.5032H19.2439V23.8362H37.7471V18.5032Z" fill="#4D8DE7"/>
<path d="M37.7471 31.667H19.2439V37H37.7471V31.667Z" fill="#4D8DE7"/>
<path d="M24.5769 18.5032H19.2439V37.0064H24.5769V18.5032Z" fill="#4D8DE7"/>
<path d="M60.5447 15.7952C60.5447 17.987 60.3153 19.9941 59.8502 21.81C59.3851 23.6259 58.6969 25.2825 57.773 26.7671C56.8555 28.2517 55.7086 29.5834 54.3387 30.7557C52.9688 31.9281 51.3823 32.9794 49.5728 33.897L46.9731 29.9912C48.394 29.2266 49.6174 28.4174 50.6368 27.5636C51.6563 26.7034 52.5165 25.7986 53.211 24.8493H47.553V20.3254H55.2308C55.3263 19.8794 55.3964 19.4334 55.4538 18.981C55.5047 18.5286 55.543 18.0635 55.5557 17.5856H47.5593V12.9407H60.5511V15.7952H60.5447ZM63.0997 12.2207H67.974V34.1327H63.0997V12.2207Z" fill="#4D8DE7"/>
<path d="M71.1026 12.3418H90.587V15.7697H75.8558V17.2734H90.7017V20.7014H71.1026V12.3418ZM90.8227 34.3749H85.9484V30.0613H70.9879V26.6079H90.8227V34.3749ZM70.0576 21.8737H91.8613V25.4482H70.0576V21.8737Z" fill="#4D8DE7"/>
<path d="M106.943 15.7952C106.943 17.987 106.714 19.9941 106.248 21.81C105.783 23.6259 105.095 25.2825 104.171 26.7671C103.254 28.2517 102.107 29.5834 100.737 30.7557C99.367 31.9281 97.7805 32.9794 95.971 33.897L93.3713 29.9912C94.7922 29.2266 96.0156 28.4174 97.035 27.5636C98.0545 26.7034 98.9146 25.7986 99.6091 24.8493H93.9511V20.3254H101.629C101.725 19.8794 101.795 19.4334 101.852 18.981C101.903 18.5286 101.941 18.0635 101.954 17.5856H93.9511V12.9407H106.943V15.7952ZM109.492 12.2207H114.366V34.1327H109.492V12.2207Z" fill="#4D8DE7"/>
<path d="M117.494 12.3418H136.979V15.7697H122.248V17.2734H137.093V20.7014H117.494V12.3418ZM137.215 34.3749H132.34V30.0613H117.38V26.6079H137.215V34.3749ZM116.456 21.8737H138.259V25.4482H116.456V21.8737Z" fill="#4D8DE7"/>
<path d="M54.6507 6.37016H48.2107V5.38522H50.764V4.83214H49.9533C49.731 4.83214 49.5265 4.7993 49.3396 4.73364C49.1578 4.66798 48.9986 4.57454 48.8623 4.45331C48.7309 4.33209 48.6274 4.18308 48.5516 4.0063C48.4759 3.82446 48.438 3.6199 48.438 3.39261C48.438 3.16531 48.4759 2.96327 48.5516 2.78649C48.6274 2.60465 48.7309 2.45312 48.8623 2.3319C48.9986 2.21068 49.1578 2.11723 49.3396 2.05157C49.5265 1.98591 49.731 1.95308 49.9533 1.95308H52.9081C53.1303 1.95308 53.3324 1.98591 53.5142 2.05157C53.7011 2.11723 53.8602 2.21068 53.9915 2.3319C54.1279 2.45312 54.234 2.60465 54.3098 2.78649C54.3855 2.96327 54.4234 3.16531 54.4234 3.39261C54.4234 3.6199 54.3855 3.82446 54.3098 4.0063C54.234 4.18308 54.1279 4.33209 53.9915 4.45331C53.8602 4.57454 53.7011 4.66798 53.5142 4.73364C53.3324 4.7993 53.1303 4.83214 52.9081 4.83214H52.0974V5.38522H54.6507V6.37016ZM54.287 8.90828H48.6501V6.7111H49.9078V7.90819H54.287V8.90828ZM52.7035 3.86235C52.8652 3.86235 52.9813 3.81689 53.0521 3.72597C53.1278 3.63505 53.1657 3.52393 53.1657 3.39261C53.1657 3.26128 53.1278 3.15016 53.0521 3.05924C52.9813 2.96832 52.8652 2.92286 52.7035 2.92286H50.1578C49.9962 2.92286 49.8775 2.96832 49.8018 3.05924C49.731 3.15016 49.6957 3.26128 49.6957 3.39261C49.6957 3.52393 49.731 3.63505 49.8018 3.72597C49.8775 3.81689 49.9962 3.86235 50.1578 3.86235H52.7035Z" fill="#4D8DE7"/>
<path d="M61.4487 8.88555H60.3198V5.63524H59.9182V8.88555H58.7969V1.9758H59.9182V4.46846H60.3198V1.9758H61.4487V8.88555ZM58.4484 8.46127H57.3119L57.0316 3.61232C57.0215 3.47595 56.976 3.40776 56.8952 3.40776H56.8346C56.7487 3.40776 56.7033 3.47595 56.6982 3.61232L56.2815 8.46127H55.1451L55.6072 3.40776H55.1905V2.39251H56.2664V1.61971H57.4635V2.39251H58.5696V3.40776H58.1226L58.4484 8.46127Z" fill="#4D8DE7"/>
<path d="M68.2618 8.17336C68.2618 8.44106 68.2063 8.63048 68.0951 8.7416C67.984 8.85272 67.7946 8.90828 67.5269 8.90828H62.5492V6.90051C62.5492 6.67322 62.587 6.52169 62.6628 6.44593C62.7386 6.37016 62.8901 6.33228 63.1174 6.33228H64.7388V5.908H62.1855V4.92305H68.6255V5.908H66.0722V6.33228H68.2618V8.17336ZM66.8829 1.95308C67.1052 1.95308 67.3072 1.98338 67.489 2.04399C67.6759 2.09955 67.835 2.18289 67.9663 2.29402C68.1027 2.40514 68.2088 2.54404 68.2846 2.71072C68.3603 2.87235 68.3982 3.05924 68.3982 3.27138C68.3982 3.48352 68.3603 3.67294 68.2846 3.83962C68.2088 4.00125 68.1027 4.13763 67.9663 4.24875C67.835 4.35987 67.6759 4.44574 67.489 4.50635C67.3072 4.56191 67.1052 4.58969 66.8829 4.58969H63.9281C63.7058 4.58969 63.5013 4.56191 63.3144 4.50635C63.1326 4.44574 62.9734 4.35987 62.8371 4.24875C62.7057 4.13763 62.6022 4.00125 62.5264 3.83962C62.4507 3.67294 62.4128 3.48352 62.4128 3.27138C62.4128 3.05924 62.4507 2.87235 62.5264 2.71072C62.6022 2.54404 62.7057 2.40514 62.8371 2.29402C62.9734 2.18289 63.1326 2.09955 63.3144 2.04399C63.5013 1.98338 63.7058 1.95308 63.9281 1.95308H66.8829ZM66.6783 3.6199C66.84 3.6199 66.9562 3.58707 67.0269 3.52141C67.1026 3.45574 67.1405 3.3724 67.1405 3.27138C67.1405 3.17036 67.1026 3.08702 67.0269 3.02136C66.9562 2.9557 66.84 2.92286 66.6783 2.92286H64.1327C63.971 2.92286 63.8523 2.9557 63.7766 3.02136C63.7058 3.08702 63.6705 3.17036 63.6705 3.27138C63.6705 3.3724 63.7058 3.45574 63.7766 3.52141C63.8523 3.58707 63.971 3.6199 64.1327 3.6199H66.6783ZM67.0041 7.92334V7.31722H63.8069V7.92334H67.0041Z" fill="#4D8DE7"/>
<path d="M75.1565 4.63515C75.1565 4.90285 75.1111 5.13772 75.0202 5.33976C74.9343 5.53675 74.8105 5.70091 74.6489 5.83223C74.4873 5.95851 74.2928 6.05447 74.0655 6.12014C73.8382 6.18075 73.5882 6.21105 73.3155 6.21105C73.0427 6.21105 72.7927 6.18075 72.5654 6.12014C72.3381 6.05447 72.1436 5.95851 71.982 5.83223C71.8204 5.70091 71.6941 5.53675 71.6032 5.33976C71.5173 5.13772 71.4744 4.90285 71.4744 4.63515V3.90781C71.4744 3.78658 71.4971 3.65778 71.5426 3.52141C71.588 3.37998 71.6411 3.26886 71.7017 3.18804H71.2243V2.2334H72.6866V1.54395H73.9443V2.2334H75.4066V3.18804H74.9292C74.9848 3.26886 75.0353 3.37998 75.0808 3.52141C75.1313 3.65778 75.1565 3.78658 75.1565 3.90781V4.63515ZM77.0203 7.18084H75.7627V1.9758H77.0203V3.70324H77.8386V4.76395H77.0203V7.18084ZM77.0658 8.8704H71.6638V6.52169H72.9215V7.82484H77.0658V8.8704ZM73.8988 3.93811C73.8988 3.62495 73.8534 3.41028 73.7625 3.29411C73.6766 3.17289 73.5276 3.11228 73.3155 3.11228C73.1033 3.11228 72.9518 3.17289 72.8609 3.29411C72.775 3.41028 72.7321 3.62495 72.7321 3.93811V4.43058C72.7321 4.74374 72.775 4.96094 72.8609 5.08216C72.9518 5.19833 73.1033 5.25642 73.3155 5.25642C73.5276 5.25642 73.6766 5.19833 73.7625 5.08216C73.8534 4.96094 73.8988 4.74374 73.8988 4.43058V3.93811Z" fill="#4D8DE7"/>
<path d="M84.6896 5.36249H78.2496V4.42301H84.6896V5.36249ZM84.4017 8.90828H78.6133V6.92324H83.0683V6.58988H78.5982V5.73374H84.326V7.13538C84.326 7.36268 84.2881 7.51421 84.2123 7.58997C84.1366 7.66574 83.985 7.70362 83.7577 7.70362H79.871V8.03699H84.4017V8.90828ZM84.1669 4.18056H82.9092L83.0228 3.14258C83.038 3.00115 82.9673 2.93044 82.8107 2.93044H78.6512V1.99096H83.9774C84.1088 1.99096 84.2098 2.02884 84.2805 2.1046C84.3512 2.18037 84.379 2.28139 84.3638 2.40766L84.1669 4.18056Z" fill="#4D8DE7"/>
<path d="M91.4876 8.88555H90.3587V5.63524H89.9572V8.88555H88.8359V1.9758H89.9572V4.46846H90.3587V1.9758H91.4876V8.88555ZM88.4267 6.89294C88.4267 7.15559 88.3889 7.39046 88.3131 7.59755C88.2373 7.80464 88.1313 7.9789 87.9949 8.12033C87.8585 8.2668 87.6969 8.37793 87.51 8.45369C87.3231 8.53451 87.1185 8.57491 86.8963 8.57491C86.674 8.57491 86.4695 8.53451 86.2826 8.45369C86.0957 8.37793 85.9341 8.2668 85.7977 8.12033C85.6613 7.9789 85.5552 7.80464 85.4795 7.59755C85.4037 7.39046 85.3658 7.15559 85.3658 6.89294V5.32461C85.3658 5.06196 85.4037 4.82709 85.4795 4.61999C85.5552 4.4129 85.6613 4.23865 85.7977 4.09722C85.9341 3.95074 86.0957 3.83962 86.2826 3.76385C86.4695 3.68304 86.674 3.64263 86.8963 3.64263C87.1185 3.64263 87.3231 3.68304 87.51 3.76385C87.6969 3.83962 87.8585 3.95074 87.9949 4.09722C88.1313 4.23865 88.2373 4.4129 88.3131 4.61999C88.3889 4.82709 88.4267 5.06196 88.4267 5.32461V6.89294ZM88.5783 3.43806H85.2143V2.42282H86.2977V1.61971H87.4948V2.42282H88.5783V3.43806ZM86.5023 6.67322C86.5023 6.96618 86.5377 7.18842 86.6084 7.33995C86.6841 7.48643 86.7801 7.55967 86.8963 7.55967C87.0125 7.55967 87.1059 7.48643 87.1766 7.33995C87.2524 7.18842 87.2903 6.96618 87.2903 6.67322V5.54432C87.2903 5.25137 87.2524 5.03165 87.1766 4.88517C87.1059 4.73364 87.0125 4.65788 86.8963 4.65788C86.7801 4.65788 86.6841 4.73364 86.6084 4.88517C86.5377 5.03165 86.5023 5.25137 86.5023 5.54432V6.67322Z" fill="#4D8DE7"/>
<path d="M98.3008 8.90828H97.0431V7.33237H92.5881V6.33228H98.3008V8.90828ZM98.2705 4.58969H92.626V2.49858C92.626 2.3218 92.6664 2.193 92.7472 2.11218C92.828 2.03137 92.9568 1.99096 93.1336 1.99096H98.225V2.96075H93.8837V3.6199H98.2705V4.58969ZM98.6644 5.95345H92.2244V4.96851H98.6644V5.95345Z" fill="#4D8DE7"/>
<path d="M107.362 8.88555H106.105V1.9758H107.362V8.88555ZM105.65 8.3855H104.392L103.854 3.22592C103.839 3.0946 103.786 3.02893 103.695 3.02893H103.506C103.455 3.02893 103.418 3.04914 103.392 3.08955C103.372 3.1249 103.357 3.17036 103.347 3.22592L102.673 8.3855H101.415L102.15 3.02893H101.468V2.01369H105.802V3.02893H105.052L105.65 8.3855Z" fill="#4D8DE7"/>
<path d="M110.152 4.6503C109.678 4.6503 109.301 4.53413 109.023 4.30178C108.746 4.06944 108.607 3.72344 108.607 3.26381C108.607 2.80417 108.746 2.4607 109.023 2.2334C109.301 2.00106 109.678 1.88489 110.152 1.88489H110.94C111.415 1.88489 111.791 2.00106 112.069 2.2334C112.347 2.4607 112.486 2.80417 112.486 3.26381C112.486 3.72344 112.347 4.06944 112.069 4.30178C111.791 4.53413 111.415 4.6503 110.94 4.6503H110.152ZM114.35 7.52178H113.092V6.95355H111.827V6.05195H113.092V1.9758H114.35V7.52178ZM114.395 8.8704H108.842V6.86263H110.099V7.87788H114.395V8.8704ZM112.819 5.8095H111.175V6.67322H109.842V5.8095H108.47V4.87759H112.819V5.8095ZM110.721 3.71082C110.882 3.71082 111.006 3.67294 111.092 3.59717C111.183 3.52141 111.228 3.41028 111.228 3.26381C111.228 3.11733 111.183 3.00873 111.092 2.93802C111.006 2.86225 110.882 2.82437 110.721 2.82437H110.372C110.21 2.82437 110.084 2.86225 109.993 2.93802C109.907 3.00873 109.864 3.11733 109.864 3.26381C109.864 3.41028 109.907 3.52141 109.993 3.59717C110.084 3.67294 110.21 3.71082 110.372 3.71082H110.721Z" fill="#4D8DE7"/>
<path d="M123.426 8.88555H122.169V1.9758H123.426V8.88555ZM121.57 8.3855H120.313V3.02893H119.888C119.762 3.02893 119.669 3.07187 119.608 3.15773C119.547 3.23855 119.504 3.3522 119.479 3.49868L118.676 8.3855H117.418L118.237 3.46837C118.277 3.23097 118.33 3.02136 118.396 2.83952C118.461 2.65769 118.55 2.50616 118.661 2.38493C118.772 2.26371 118.911 2.17279 119.078 2.11218C119.244 2.04652 119.449 2.01369 119.691 2.01369H121.57V8.3855Z" fill="#4D8DE7"/>
<path d="M130.702 6.2944H129.429L128.618 3.27896C128.593 3.20319 128.555 3.14511 128.505 3.1047C128.459 3.05924 128.378 3.03651 128.262 3.03651H126.883C126.767 3.03651 126.684 3.05924 126.633 3.1047C126.588 3.14511 126.552 3.20319 126.527 3.27896L125.716 6.2944H124.444L125.353 2.9759C125.398 2.80922 125.451 2.66779 125.512 2.55162C125.573 2.43544 125.648 2.342 125.739 2.27129C125.835 2.19552 125.956 2.13996 126.103 2.1046C126.249 2.06925 126.434 2.05157 126.656 2.05157H128.489C128.712 2.05157 128.896 2.06925 129.043 2.1046C129.189 2.13996 129.308 2.19552 129.399 2.27129C129.495 2.342 129.573 2.43544 129.634 2.55162C129.694 2.66779 129.747 2.80922 129.793 2.9759L130.702 6.2944ZM130.793 8.43096H124.353V7.44602H130.793V8.43096Z" fill="#4D8DE7"/>
<path d="M137.591 8.15063C137.591 8.41833 137.535 8.60775 137.424 8.71887C137.313 8.82999 137.123 8.88555 136.856 8.88555H132.083V6.75656C132.083 6.52927 132.12 6.37774 132.196 6.30197C132.272 6.22621 132.424 6.18832 132.651 6.18832H137.591V8.15063ZM134.583 5.74131H131.507V2.52131C131.507 2.34453 131.547 2.21573 131.628 2.13491C131.709 2.05409 131.838 2.01369 132.014 2.01369H134.31V2.92286H132.643V3.43049H134.181V4.32451H132.643V4.83214H134.583V5.74131ZM136.113 5.91557H134.992V4.30936H134.393V3.27896H134.992V1.9758H136.113V5.91557ZM137.591 5.91557H136.462V1.9758H137.591V5.91557ZM136.333 7.90061V7.17327H133.34V7.90061H136.333Z" fill="#4D8DE7"/>
</g>
<defs>
<clipPath id="clip0_2059_7908">
<rect width="137.519" height="37" fill="white" transform="translate(0.740723)"/>
</clipPath>
</defs>
</svg>
