<svg width="149" height="40" viewBox="0 0 149 40" fill="none" xmlns="http://www.w3.org/2000/svg">
<g clip-path="url(#clip0_1702_15169)">
<path d="M20.0034 0H0V5.76545H20.0034V0Z" fill="white"/>
<path d="M20.0034 8.26587H0V14.0313H20.0034V8.26587Z" fill="white"/>
<path d="M19.9969 0H14.2314V20.0035H19.9969V0Z" fill="white"/>
<path d="M40.0002 0H27.374V5.76545H40.0002V0Z" fill="white"/>
<path d="M39.9998 0H34.2344V12.6261H39.9998V0Z" fill="white"/>
<path d="M12.6261 34.2346H0V40.0001H12.6261V34.2346Z" fill="white"/>
<path d="M5.76545 27.3739H0V40H5.76545V27.3739Z" fill="white"/>
<path d="M40.0074 20.0034H20.0039V25.7689H40.0074V20.0034Z" fill="white"/>
<path d="M40.0074 34.2345H20.0039V40H40.0074V34.2345Z" fill="white"/>
<path d="M25.7694 20.0034H20.0039V40.0069H25.7694V20.0034Z" fill="white"/>
<path d="M64.6534 17.076C64.6534 19.4455 64.4054 21.6153 63.9026 23.5785C63.3997 25.5416 62.6558 27.3326 61.657 28.9375C60.6651 30.5425 59.4252 31.9821 57.9443 33.2496C56.4633 34.517 54.7481 35.6535 52.7918 36.6455L49.9814 32.423C51.5175 31.5964 52.8401 30.7216 53.9422 29.7985C55.0443 28.8686 55.9742 27.8905 56.725 26.8642H50.6083V21.9735H58.9086C59.0119 21.4913 59.0877 21.0092 59.1497 20.5201C59.2048 20.031 59.2461 19.5282 59.2599 19.0116H50.6152V13.99H64.6603V17.076H64.6534ZM67.4156 13.2117H72.6851V36.9003H67.4156V13.2117Z" fill="white"/>
<path d="M76.0672 13.3425H97.1314V17.0484H81.2058V18.674H97.2554V22.3799H76.0672V13.3425ZM97.3863 37.1621H92.1168V32.4987H75.9432V28.7653H97.3863V37.1621ZM74.9375 23.6473H98.5091V27.5116H74.9375V23.6473Z" fill="white"/>
<path d="M114.814 17.076C114.814 19.4455 114.566 21.6153 114.063 23.5785C113.56 25.5416 112.816 27.3326 111.817 28.9375C110.825 30.5425 109.585 31.9821 108.104 33.2496C106.623 34.517 104.908 35.6535 102.952 36.6455L100.142 32.423C101.678 31.5964 103 30.7216 104.102 29.7985C105.204 28.8686 106.134 27.8905 106.885 26.8642H100.768V21.9735H109.069C109.172 21.4913 109.248 21.0092 109.31 20.5201C109.365 20.031 109.406 19.5282 109.42 19.0116H100.768V13.99H114.814V17.076ZM117.569 13.2117H122.838V36.9003H117.569V13.2117Z" fill="white"/>
<path d="M126.22 13.3425H147.285V17.0484H131.359V18.674H147.409V22.3799H126.22V13.3425ZM147.54 37.1621H142.27V32.4987H126.096V28.7653H147.54V37.1621ZM125.098 23.6473H148.669V27.5116H125.098V23.6473Z" fill="white"/>
<path d="M57.4983 6.60597H50.5283V5.53997H53.2917V4.94137H52.4143C52.1738 4.94137 51.9524 4.90584 51.7501 4.83477C51.5533 4.7637 51.3811 4.66257 51.2335 4.53137C51.0914 4.40017 50.9793 4.2389 50.8973 4.04757C50.8153 3.85077 50.7743 3.62937 50.7743 3.38337C50.7743 3.13737 50.8153 2.9187 50.8973 2.72737C50.9793 2.53057 51.0914 2.36657 51.2335 2.23537C51.3811 2.10417 51.5533 2.00303 51.7501 1.93197C51.9524 1.8609 52.1738 1.82537 52.4143 1.82537H55.6123C55.8529 1.82537 56.0715 1.8609 56.2683 1.93197C56.4706 2.00303 56.6428 2.10417 56.7849 2.23537C56.9325 2.36657 57.0473 2.53057 57.1293 2.72737C57.2113 2.9187 57.2523 3.13737 57.2523 3.38337C57.2523 3.62937 57.2113 3.85077 57.1293 4.04757C57.0473 4.2389 56.9325 4.40017 56.7849 4.53137C56.6428 4.66257 56.4706 4.7637 56.2683 4.83477C56.0715 4.90584 55.8529 4.94137 55.6123 4.94137H54.7349V5.53997H57.4983V6.60597ZM57.1047 9.35297H51.0039V6.97497H52.3651V8.27057H57.1047V9.35297ZM55.3909 3.89177C55.5659 3.89177 55.6916 3.84257 55.7681 3.74417C55.8501 3.64577 55.8911 3.5255 55.8911 3.38337C55.8911 3.24124 55.8501 3.12097 55.7681 3.02257C55.6916 2.92417 55.5659 2.87497 55.3909 2.87497H52.6357C52.4608 2.87497 52.3323 2.92417 52.2503 3.02257C52.1738 3.12097 52.1355 3.24124 52.1355 3.38337C52.1355 3.5255 52.1738 3.64577 52.2503 3.74417C52.3323 3.84257 52.4608 3.89177 52.6357 3.89177H55.3909Z" fill="white"/>
<path d="M64.8558 9.32837H63.634V5.81057H63.1994V9.32837H61.9858V1.84997H63.1994V4.54777H63.634V1.84997H64.8558V9.32837ZM61.6086 8.86917H60.3786L60.0752 3.62117C60.0642 3.47357 60.015 3.39977 59.9276 3.39977H59.862C59.769 3.39977 59.7198 3.47357 59.7144 3.62117L59.2634 8.86917H58.0334L58.5336 3.39977H58.0826V2.30097H59.247V1.46457H60.5426V2.30097H61.7398V3.39977H61.256L61.6086 8.86917Z" fill="white"/>
<path d="M72.2296 8.55757C72.2296 8.8473 72.1695 9.0523 72.0492 9.17257C71.929 9.29283 71.724 9.35297 71.4342 9.35297H66.0468V7.17997C66.0468 6.93397 66.0878 6.76997 66.1698 6.68797C66.2518 6.60597 66.4158 6.56497 66.6618 6.56497H68.4166V6.10577H65.6532V5.03977H72.6232V6.10577H69.8598V6.56497H72.2296V8.55757ZM70.7372 1.82537C70.9778 1.82537 71.1964 1.85817 71.3932 1.92377C71.5955 1.9839 71.7677 2.0741 71.9098 2.19437C72.0574 2.31464 72.1722 2.46497 72.2542 2.64537C72.3362 2.8203 72.3772 3.02257 72.3772 3.25217C72.3772 3.48177 72.3362 3.68677 72.2542 3.86717C72.1722 4.0421 72.0574 4.1897 71.9098 4.30997C71.7677 4.43024 71.5955 4.52317 71.3932 4.58877C71.1964 4.6489 70.9778 4.67897 70.7372 4.67897H67.5392C67.2987 4.67897 67.0773 4.6489 66.875 4.58877C66.6782 4.52317 66.506 4.43024 66.3584 4.30997C66.2163 4.1897 66.1042 4.0421 66.0222 3.86717C65.9402 3.68677 65.8992 3.48177 65.8992 3.25217C65.8992 3.02257 65.9402 2.8203 66.0222 2.64537C66.1042 2.46497 66.2163 2.31464 66.3584 2.19437C66.506 2.0741 66.6782 1.9839 66.875 1.92377C67.0773 1.85817 67.2987 1.82537 67.5392 1.82537H70.7372ZM70.5158 3.62937C70.6908 3.62937 70.8165 3.59383 70.893 3.52277C70.975 3.4517 71.016 3.3615 71.016 3.25217C71.016 3.14283 70.975 3.05263 70.893 2.98157C70.8165 2.9105 70.6908 2.87497 70.5158 2.87497H67.7606C67.5857 2.87497 67.4572 2.9105 67.3752 2.98157C67.2987 3.05263 67.2604 3.14283 67.2604 3.25217C67.2604 3.3615 67.2987 3.4517 67.3752 3.52277C67.4572 3.59383 67.5857 3.62937 67.7606 3.62937H70.5158ZM70.8684 8.28697V7.63097H67.408V8.28697H70.8684Z" fill="white"/>
<path d="M79.6917 4.72817C79.6917 5.0179 79.6425 5.2721 79.5441 5.49077C79.4512 5.70397 79.3173 5.88164 79.1423 6.02377C78.9674 6.16044 78.7569 6.2643 78.5109 6.33537C78.2649 6.40097 77.9943 6.43377 77.6991 6.43377C77.4039 6.43377 77.1333 6.40097 76.8873 6.33537C76.6413 6.2643 76.4309 6.16044 76.2559 6.02377C76.081 5.88164 75.9443 5.70397 75.8459 5.49077C75.753 5.2721 75.7065 5.0179 75.7065 4.72817V3.94097C75.7065 3.80977 75.7311 3.67037 75.7803 3.52277C75.8295 3.3697 75.8869 3.24944 75.9525 3.16197H75.4359V2.12877H77.0185V1.38257H78.3797V2.12877H79.9623V3.16197H79.4457C79.5059 3.24944 79.5605 3.3697 79.6097 3.52277C79.6644 3.67037 79.6917 3.80977 79.6917 3.94097V4.72817ZM81.7089 7.48337H80.3477V1.84997H81.7089V3.71957H82.5945V4.86757H81.7089V7.48337ZM81.7581 9.31197H75.9115V6.76997H77.2727V8.18037H81.7581V9.31197ZM78.3305 3.97377C78.3305 3.63484 78.2813 3.4025 78.1829 3.27677C78.09 3.14557 77.9287 3.07997 77.6991 3.07997C77.4695 3.07997 77.3055 3.14557 77.2071 3.27677C77.1142 3.4025 77.0677 3.63484 77.0677 3.97377V4.50677C77.0677 4.8457 77.1142 5.08077 77.2071 5.21197C77.3055 5.3377 77.4695 5.40057 77.6991 5.40057C77.9287 5.40057 78.09 5.3377 78.1829 5.21197C78.2813 5.08077 78.3305 4.8457 78.3305 4.50677V3.97377Z" fill="white"/>
<path d="M90.0094 5.51537H83.0394V4.49857H90.0094V5.51537ZM89.6978 9.35297H83.433V7.20457H88.2546V6.84377H83.4166V5.91717H89.6158V7.43417C89.6158 7.68017 89.5748 7.84417 89.4928 7.92617C89.4108 8.00817 89.2468 8.04917 89.0008 8.04917H84.7942V8.40997H89.6978V9.35297ZM89.4436 4.23617H88.0824L88.2054 3.11277C88.2218 2.9597 88.1453 2.88317 87.9758 2.88317H83.474V1.86637H89.2386C89.3807 1.86637 89.4901 1.90737 89.5666 1.98937C89.6431 2.07137 89.6732 2.1807 89.6568 2.31737L89.4436 4.23617Z" fill="white"/>
<path d="M97.3668 9.32837H96.145V5.81057H95.7104V9.32837H94.4968V1.84997H95.7104V4.54777H96.145V1.84997H97.3668V9.32837ZM94.054 7.17177C94.054 7.45604 94.013 7.71024 93.931 7.93437C93.849 8.1585 93.7342 8.3471 93.5866 8.50017C93.439 8.6587 93.2641 8.77897 93.0618 8.86097C92.8596 8.94844 92.6382 8.99217 92.3976 8.99217C92.1571 8.99217 91.9357 8.94844 91.7334 8.86097C91.5312 8.77897 91.3562 8.6587 91.2086 8.50017C91.061 8.3471 90.9462 8.1585 90.8642 7.93437C90.7822 7.71024 90.7412 7.45604 90.7412 7.17177V5.47437C90.7412 5.1901 90.7822 4.9359 90.8642 4.71177C90.9462 4.48764 91.061 4.29904 91.2086 4.14597C91.3562 3.98744 91.5312 3.86717 91.7334 3.78517C91.9357 3.6977 92.1571 3.65397 92.3976 3.65397C92.6382 3.65397 92.8596 3.6977 93.0618 3.78517C93.2641 3.86717 93.439 3.98744 93.5866 4.14597C93.7342 4.29904 93.849 4.48764 93.931 4.71177C94.013 4.9359 94.054 5.1901 94.054 5.47437V7.17177ZM94.218 3.43257H90.5772V2.33377H91.7498V1.46457H93.0454V2.33377H94.218V3.43257ZM91.9712 6.93397C91.9712 7.25104 92.0095 7.49157 92.086 7.65557C92.168 7.8141 92.2719 7.89337 92.3976 7.89337C92.5234 7.89337 92.6245 7.8141 92.701 7.65557C92.783 7.49157 92.824 7.25104 92.824 6.93397V5.71217C92.824 5.3951 92.783 5.1573 92.701 4.99877C92.6245 4.83477 92.5234 4.75277 92.3976 4.75277C92.2719 4.75277 92.168 4.83477 92.086 4.99877C92.0095 5.1573 91.9712 5.3951 91.9712 5.71217V6.93397Z" fill="white"/>
<path d="M104.741 9.35297H103.379V7.64737H98.5579V6.56497H104.741V9.35297ZM104.708 4.67897H98.5989V2.41577C98.5989 2.22444 98.6426 2.08504 98.7301 1.99757C98.8176 1.9101 98.957 1.86637 99.1483 1.86637H104.659V2.91597H99.9601V3.62937H104.708V4.67897ZM105.134 6.15497H98.1643V5.08897H105.134V6.15497Z" fill="white"/>
<path d="M114.548 9.32837H113.187V1.84997H114.548V9.32837ZM112.695 8.78717H111.334L110.751 3.20297C110.735 3.06084 110.678 2.98977 110.579 2.98977H110.374C110.32 2.98977 110.279 3.01164 110.251 3.05537C110.229 3.09363 110.213 3.14284 110.202 3.20297L109.472 8.78717H108.111L108.906 2.98977H108.168V1.89097H112.859V2.98977H112.047L112.695 8.78717Z" fill="white"/>
<path d="M117.568 4.74457C117.054 4.74457 116.647 4.61884 116.346 4.36737C116.045 4.1159 115.895 3.74144 115.895 3.24397C115.895 2.7465 116.045 2.37477 116.346 2.12877C116.647 1.8773 117.054 1.75157 117.568 1.75157H118.42C118.934 1.75157 119.342 1.8773 119.642 2.12877C119.943 2.37477 120.093 2.7465 120.093 3.24397C120.093 3.74144 119.943 4.1159 119.642 4.36737C119.342 4.61884 118.934 4.74457 118.42 4.74457H117.568ZM122.11 7.85237H120.749V7.23737H119.38V6.26157H120.749V1.84997H122.11V7.85237ZM122.16 9.31197H116.149V7.13897H117.51V8.23777H122.16V9.31197ZM120.454 5.99917H118.675V6.93397H117.231V5.99917H115.747V4.99057H120.454V5.99917ZM118.183 3.72777C118.358 3.72777 118.492 3.68677 118.584 3.60477C118.683 3.52277 118.732 3.4025 118.732 3.24397C118.732 3.08544 118.683 2.9679 118.584 2.89137C118.492 2.80937 118.358 2.76837 118.183 2.76837H117.805C117.631 2.76837 117.494 2.80937 117.395 2.89137C117.303 2.9679 117.256 3.08544 117.256 3.24397C117.256 3.4025 117.303 3.52277 117.395 3.60477C117.494 3.68677 117.631 3.72777 117.805 3.72777H118.183Z" fill="white"/>
<path d="M131.934 9.32837H130.573V1.84997H131.934V9.32837ZM129.925 8.78717H128.564V2.98977H128.105C127.968 2.98977 127.867 3.03624 127.801 3.12917C127.736 3.21664 127.689 3.33964 127.662 3.49817L126.793 8.78717H125.432L126.317 3.46537C126.361 3.20844 126.418 2.98157 126.489 2.78477C126.56 2.58797 126.656 2.42397 126.776 2.29277C126.897 2.16157 127.047 2.06317 127.227 1.99757C127.408 1.9265 127.629 1.89097 127.892 1.89097H129.925V8.78717Z" fill="white"/>
<path d="M139.808 6.52397H138.431L137.553 3.26037C137.526 3.17837 137.485 3.1155 137.43 3.07177C137.381 3.02257 137.294 2.99797 137.168 2.99797H135.675C135.55 2.99797 135.46 3.02257 135.405 3.07177C135.356 3.1155 135.317 3.17837 135.29 3.26037L134.413 6.52397H133.035L134.019 2.93237C134.068 2.75197 134.126 2.5989 134.191 2.47317C134.257 2.34744 134.339 2.2463 134.437 2.16977C134.541 2.08777 134.672 2.02764 134.831 1.98937C134.989 1.9511 135.189 1.93197 135.429 1.93197H137.414C137.654 1.93197 137.854 1.9511 138.012 1.98937C138.171 2.02764 138.299 2.08777 138.398 2.16977C138.502 2.2463 138.586 2.34744 138.652 2.47317C138.718 2.5989 138.775 2.75197 138.824 2.93237L139.808 6.52397ZM139.907 8.83637H132.937V7.77037H139.907V8.83637Z" fill="white"/>
<path d="M147.264 8.53297C147.264 8.8227 147.204 9.0277 147.084 9.14797C146.963 9.26823 146.758 9.32837 146.469 9.32837H141.303V7.02417C141.303 6.77817 141.344 6.61417 141.426 6.53217C141.508 6.45017 141.672 6.40917 141.918 6.40917H147.264V8.53297ZM144.009 5.92537H140.679V2.44037C140.679 2.24903 140.723 2.10963 140.811 2.02217C140.898 1.9347 141.038 1.89097 141.229 1.89097H143.713V2.87497H141.909V3.42437H143.574V4.39197H141.909V4.94137H144.009V5.92537ZM145.665 6.11397H144.451V4.37557H143.804V3.26037H144.451V1.84997H145.665V6.11397ZM147.264 6.11397H146.042V1.84997H147.264V6.11397ZM145.903 8.26237V7.47517H142.664V8.26237H145.903Z" fill="white"/>
</g>
<defs>
<clipPath id="clip0_1702_15169">
<rect width="148.669" height="40" fill="white"/>
</clipPath>
</defs>
</svg>
