<svg width="28" height="29" viewBox="0 0 28 29" fill="none" xmlns="http://www.w3.org/2000/svg">
<path d="M23.625 12.75V7.5" stroke="#4D8DE7" stroke-linecap="round" stroke-linejoin="round"/>
<path d="M26.25 10.125H21" stroke="#4D8DE7" stroke-linecap="round" stroke-linejoin="round"/>
<path d="M18.375 3.125V6.625" stroke="#4D8DE7" stroke-linecap="round" stroke-linejoin="round"/>
<path d="M20.125 4.875H16.625" stroke="#4D8DE7" stroke-linecap="round" stroke-linejoin="round"/>
<path d="M23.7018 17.1906C21.9839 17.6724 20.1687 17.6882 18.4427 17.2364C16.7166 16.7846 15.142 15.8815 13.8803 14.6199C12.6187 13.3583 11.7157 11.7836 11.2639 10.0576C10.8121 8.33157 10.8279 6.51638 11.3096 4.79846C9.61592 5.26988 8.07528 6.17683 6.84116 7.42897C5.60705 8.6811 4.72253 10.2347 4.27571 11.9351C3.8289 13.6355 3.83538 15.4232 4.29451 17.1203C4.75364 18.8174 5.64939 20.3646 6.89255 21.6077C8.13571 22.8509 9.68288 23.7466 11.38 24.2058C13.0771 24.6649 14.8648 24.6714 16.5652 24.2246C18.2655 23.7777 19.8192 22.8932 21.0713 21.6591C22.3234 20.425 23.2304 18.8844 23.7018 17.1906V17.1906Z" fill="#4D8DE7"/>
</svg>
