<svg width="100" height="100" viewBox="0 0 100 100" fill="none" xmlns="http://www.w3.org/2000/svg">
<path d="M84.375 43.75V25" stroke="#CACACA" stroke-width="7" stroke-linecap="round" stroke-linejoin="round"/>
<path d="M93.75 34.375H75" stroke="#CACACA" stroke-width="7" stroke-linecap="round" stroke-linejoin="round"/>
<path d="M65.625 9.375V21.875" stroke="#CACACA" stroke-width="7" stroke-linecap="round" stroke-linejoin="round"/>
<path d="M71.875 15.625H59.375" stroke="#CACACA" stroke-width="7" stroke-linecap="round" stroke-linejoin="round"/>
<path d="M84.6483 59.6094C78.5129 61.3298 72.0301 61.3862 65.8656 59.7727C59.7012 58.1592 54.0774 54.934 49.5716 50.4282C45.0659 45.9225 41.8406 40.2986 40.2271 34.1342C38.6136 27.9698 38.67 21.487 40.3905 15.3516C34.3415 17.0352 28.8392 20.2743 24.4317 24.7462C20.0241 29.2181 16.8651 34.7668 15.2694 40.8395C13.6736 46.9123 13.6967 53.2971 15.3365 59.3582C16.9762 65.4192 20.1753 70.9448 24.6152 75.3846C29.0551 79.8245 34.5807 83.0236 40.6417 84.6634C46.7027 86.3031 53.0876 86.3263 59.1603 84.7305C65.233 83.1347 70.7817 79.9757 75.2536 75.5682C79.7256 71.1606 82.9647 65.6583 84.6483 59.6094V59.6094Z" stroke="#CACACA" stroke-width="7" stroke-linecap="round" stroke-linejoin="round"/>
</svg>
