<svg width="100" height="100" viewBox="0 0 100 100" fill="none" xmlns="http://www.w3.org/2000/svg">
<path d="M84.375 43.75V25" stroke="#000E3E" stroke-width="7" stroke-linecap="round" stroke-linejoin="round"/>
<path d="M93.75 34.375H75" stroke="#000E3E" stroke-width="7" stroke-linecap="round" stroke-linejoin="round"/>
<path d="M65.625 9.375V21.875" stroke="#000E3E" stroke-width="7" stroke-linecap="round" stroke-linejoin="round"/>
<path d="M71.875 15.625H59.375" stroke="#000E3E" stroke-width="7" stroke-linecap="round" stroke-linejoin="round"/>
<path d="M84.6485 59.6094C78.5131 61.3298 72.0303 61.3862 65.8659 59.7727C59.7015 58.1592 54.0776 54.934 49.5719 50.4282C45.0661 45.9225 41.8409 40.2986 40.2274 34.1342C38.6139 27.9698 38.6703 21.487 40.3907 15.3516C34.3418 17.0352 28.8395 20.2743 24.4319 24.7462C20.0244 29.2181 16.8654 34.7668 15.2696 40.8396C13.6738 46.9123 13.697 53.2971 15.3367 59.3582C16.9765 65.4192 20.1756 70.9448 24.6154 75.3846C29.0553 79.8245 34.5809 83.0236 40.6419 84.6634C46.703 86.3031 53.0878 86.3263 59.1605 84.7305C65.2333 83.1347 70.782 79.9757 75.2539 75.5682C79.7258 71.1606 82.9649 65.6583 84.6485 59.6094Z" fill="#000E3E"/>
</svg>
