<svg width="85" height="85" viewBox="0 0 85 85" fill="none" xmlns="http://www.w3.org/2000/svg">
<g clip-path="url(#clip0_1839_17285)">
<path d="M42.5 53.125C49.835 53.125 55.7812 47.1788 55.7812 39.8438C55.7812 32.5087 49.835 26.5625 42.5 26.5625C35.165 26.5625 29.2188 32.5087 29.2188 39.8438C29.2188 47.1788 35.165 53.125 42.5 53.125Z" stroke="#4D8DE7" stroke-width="2" stroke-miterlimit="10"/>
<path d="M21.1836 66.207C23.1821 62.2705 26.2317 58.9643 29.9942 56.6548C33.7567 54.3454 38.0852 53.1229 42.5 53.1229C46.9148 53.1229 51.2433 54.3454 55.0058 56.6548C58.7683 58.9643 61.8179 62.2705 63.8164 66.207" stroke="#4D8DE7" stroke-width="2" stroke-linecap="round" stroke-linejoin="round"/>
<path d="M58.4375 18.5938H74.375" stroke="#4D8DE7" stroke-width="2" stroke-linecap="round" stroke-linejoin="round"/>
<path d="M66.4062 10.625V26.5625" stroke="#4D8DE7" stroke-width="2" stroke-linecap="round" stroke-linejoin="round"/>
<path d="M73.9766 37.4863C74.2451 39.1439 74.3783 40.8207 74.375 42.4999C74.375 48.8042 72.5056 54.9669 69.0031 60.2088C65.5006 65.4506 60.5225 69.5361 54.6981 71.9486C48.8737 74.3612 42.4647 74.9924 36.2815 73.7625C30.0984 72.5326 24.4188 69.4968 19.961 65.039C15.5032 60.5812 12.4674 54.9016 11.2375 48.7185C10.0076 42.5353 10.6388 36.1263 13.0514 30.3019C15.4639 24.4775 19.5494 19.4993 24.7912 15.9968C30.033 12.4944 36.1957 10.6249 42.5 10.6249C44.1793 10.6216 45.856 10.7549 47.5137 11.0234" stroke="#4D8DE7" stroke-width="2" stroke-linecap="round" stroke-linejoin="round"/>
</g>
<defs>
<clipPath id="clip0_1839_17285">
<rect width="85" height="85" fill="white"/>
</clipPath>
</defs>
</svg>
