<?xml version="1.0" encoding="utf-8"?>
<!-- Generator: Adobe Illustrator 27.2.0, SVG Export Plug-In . SVG Version: 6.00 Build 0)  -->
<svg version="1.1" id="레이어_1" xmlns="http://www.w3.org/2000/svg" xmlns:xlink="http://www.w3.org/1999/xlink" x="0px"
	 y="0px" viewBox="0 0 118 118" style="enable-background:new 0 0 118 118;" xml:space="preserve">
<style type="text/css">
	.st0{fill:#FF82BB;}
	.st1{fill:#FFFFFF;}
	.st2{fill:#E2E2E2;filter:url(#Adobe_OpacityMaskFilter);}
	.st3{mask:url(#mask0_1676_14749_00000053508842226554633340000000670588558893873028_);}
	.st4{fill:#333333;stroke:#333333;}
	.st5{fill:#333333;}
	.st6{fill:none;stroke:#333333;stroke-miterlimit:10;}
	.st7{fill:#FFFFFF;filter:url(#Adobe_OpacityMaskFilter_00000105404725486012806550000001308469038952363455_);}
	.st8{mask:url(#path-11-inside-1_1676_14749_00000131358502691542368790000004034105414671315873_);fill:#333333;}
	.st9{fill:#FFFFFF;filter:url(#Adobe_OpacityMaskFilter_00000089569351429362764770000007464091347331030196_);}
	.st10{mask:url(#path-13-inside-2_1676_14749_00000139987368968417943090000006479356616283481479_);fill:#333333;}
	.st11{fill:none;stroke:#FFFFFF;stroke-width:5;stroke-linecap:round;stroke-linejoin:round;}
</style>
<path class="st0" d="M26.6,89.3C20.3,83.5,16.5,76,16.5,67.8c0-13.4,10.1-24.9,24.7-30.2C41.3,25.1,49.4,15,59.3,15
	c10,0,18,10.1,18.1,22.5c14.6,5.3,24.7,16.9,24.7,30.2c0,9.2-4.8,17.5-12.4,23.5c0.1,4.9,0.4,11,0.7,17.6C107,98.5,118,80,118,59
	c0-32.6-26.4-59-59-59S0,26.4,0,59c0,15.8,6.2,30.2,16.4,40.8C19.7,96.2,23.2,92.6,26.6,89.3z"/>
<path class="st1" d="M59,118c11.6,0,22.3-3.3,31.4-9.1c-0.3-6.7-0.5-12.7-0.7-17.6c7.7-6,12.4-14.3,12.4-23.5
	c0-13.4-10.1-24.9-24.7-30.2C77.4,25.1,69.3,15,59.3,15c-10,0-18,10.1-18.1,22.5c-14.6,5.3-24.7,16.9-24.7,30.2
	c0,8.2,3.8,15.7,10.1,21.5c-3.4,3.4-6.9,6.9-10.2,10.5C27.1,111,42.2,118,59,118z"/>
<defs>
	<filter id="Adobe_OpacityMaskFilter" filterUnits="userSpaceOnUse" x="48.1" y="5" width="32.2" height="27.3">
		<feColorMatrix  type="matrix" values="1 0 0 0 0  0 1 0 0 0  0 0 1 0 0  0 0 0 1 0"/>
	</filter>
</defs>
<mask maskUnits="userSpaceOnUse" x="48.1" y="5" width="32.2" height="27.3" id="mask0_1676_14749_00000053508842226554633340000000670588558893873028_">
	<circle class="st2" cx="59" cy="59" r="59"/>
</mask>
<g class="st3">
	<path class="st4" d="M51.6,24.2c0,0.4-0.1,0.7-0.2,0.9c-0.1,0.2-0.3,0.3-0.4,0.3c-0.1,0-0.2-0.1-0.4-0.3c-0.1-0.2-0.2-0.5-0.2-0.9
		c0-0.4,0.1-0.7,0.2-0.9c0.1-0.2,0.3-0.3,0.4-0.3c0.1,0,0.2,0.1,0.4,0.3C51.5,23.5,51.6,23.8,51.6,24.2z"/>
	<path class="st4" d="M58.2,24.2c0,0.4-0.1,0.7-0.2,0.9c-0.1,0.2-0.3,0.3-0.4,0.3c-0.1,0-0.2-0.1-0.4-0.3c-0.1-0.2-0.2-0.5-0.2-0.9
		s0.1-0.7,0.2-0.9c0.1-0.2,0.3-0.3,0.4-0.3c0.1,0,0.2,0.1,0.4,0.3C58.1,23.5,58.2,23.8,58.2,24.2z"/>
	<path class="st5" d="M56.8,29c0,1.5-0.9,2.8-2,2.8c-1.1,0-2-1.2-2-2.8"/>
	<path class="st6" d="M56.8,29c0,1.5-0.9,2.8-2,2.8c-1.1,0-2-1.2-2-2.8"/>
	<path class="st5" d="M64.2,15c-0.2-2.1,0.4-4.2,1.7-5.7c1.4-1.7,3.5-2.6,5.7-2.5c2.1,0,4.2,1.1,5.4,2.8c1.2,1.7,1.7,3.8,1.2,5.8
		c-0.6,2.2-2.2,4.1-4.4,4.8c-0.5,0.2-0.3,0.9,0.2,0.8c2.1-0.8,3.8-2.4,4.6-4.5c0.9-2.2,0.6-4.6-0.6-6.6c-1.2-2-3.2-3.4-5.5-3.8
		c-2.4-0.4-4.8,0.3-6.6,1.9c-2,1.7-3,4.5-2.7,7C63.4,15.5,64.2,15.5,64.2,15z"/>
	<defs>
		
			<filter id="Adobe_OpacityMaskFilter_00000005977864254433226700000013884942837081183675_" filterUnits="userSpaceOnUse" x="62.3" y="5" width="17.9" height="17">
			<feColorMatrix  type="matrix" values="1 0 0 0 0  0 1 0 0 0  0 0 1 0 0  0 0 0 1 0"/>
		</filter>
	</defs>
	
		<mask maskUnits="userSpaceOnUse" x="62.3" y="5" width="17.9" height="17" id="path-11-inside-1_1676_14749_00000131358502691542368790000004034105414671315873_">
		<path style="fill:#FFFFFF;filter:url(#Adobe_OpacityMaskFilter_00000005977864254433226700000013884942837081183675_);" d="
			M64.2,15c-0.2-2.1,0.4-4.2,1.7-5.7c1.4-1.7,3.5-2.6,5.7-2.5c2.1,0,4.2,1.1,5.4,2.8c1.2,1.7,1.7,3.8,1.2,5.8
			c-0.6,2.2-2.2,4.1-4.4,4.8c-0.5,0.2-0.3,0.9,0.2,0.8c2.1-0.8,3.8-2.4,4.6-4.5c0.9-2.2,0.6-4.6-0.6-6.6c-1.2-2-3.2-3.4-5.5-3.8
			c-2.4-0.4-4.8,0.3-6.6,1.9c-2,1.7-3,4.5-2.7,7C63.4,15.5,64.2,15.5,64.2,15z"/>
	</mask>
	<path class="st8" d="M64.2,15l1-0.1l0,0L64.2,15z M65.9,9.3l-0.8-0.6l0,0L65.9,9.3z M71.6,6.8l0-1l0,0L71.6,6.8z M77,9.6l-0.8,0.6
		l0,0L77,9.6z M78.3,15.4l-1-0.2l0,0L78.3,15.4z M73.9,20.2l0.3,0.9l0,0L73.9,20.2z M74.1,21L73.8,20l0,0L74.1,21z M78.7,16.5
		l0.9,0.4l0,0L78.7,16.5z M78.2,9.9l-0.9,0.5l0,0L78.2,9.9z M72.7,6.1l0.2-1l0,0L72.7,6.1z M66.1,8l-0.7-0.7l0,0L66.1,8z M63.4,15
		l1-0.1l0,0l0,0L63.4,15z M65.2,14.9c-0.2-1.8,0.3-3.6,1.5-5l-1.5-1.3c-1.5,1.8-2.2,4.2-2,6.5L65.2,14.9z M66.7,9.9
		c1.2-1.4,3-2.2,4.9-2.2l0-2c-2.5-0.1-4.8,1-6.5,2.9L66.7,9.9z M71.6,7.8c1.8,0,3.6,0.9,4.7,2.4L77.8,9c-1.5-2-3.8-3.2-6.2-3.2
		L71.6,7.8z M76.2,10.2c1.1,1.4,1.5,3.3,1.1,5l1.9,0.5c0.6-2.3,0-4.8-1.4-6.6L76.2,10.2z M77.3,15.1c-0.5,1.9-1.9,3.5-3.7,4.1
		l0.7,1.9c2.5-0.9,4.4-3,5-5.5L77.3,15.1z M73.6,19.3c-0.9,0.3-1,1.2-0.9,1.7c0.1,0.3,0.3,0.6,0.6,0.8c0.4,0.2,0.8,0.3,1.2,0.1
		L73.8,20c0.1-0.1,0.4-0.1,0.6,0.1c0.2,0.1,0.2,0.3,0.3,0.4c0,0.1,0,0.2,0,0.4c-0.1,0.2-0.2,0.3-0.4,0.3L73.6,19.3z M74.4,21.9
		c2.4-0.9,4.3-2.7,5.2-5.1l-1.9-0.7c-0.7,1.8-2.2,3.3-4,3.9L74.4,21.9z M79.7,16.8c1-2.5,0.7-5.2-0.6-7.5l-1.7,1
		c1,1.7,1.2,3.9,0.5,5.7L79.7,16.8z M79,9.4c-1.3-2.3-3.6-3.9-6.2-4.3l-0.3,2c2,0.3,3.7,1.5,4.8,3.3L79,9.4z M72.8,5.1
		c-2.6-0.4-5.4,0.3-7.4,2.1l1.3,1.5c1.6-1.4,3.7-2,5.8-1.7L72.8,5.1z M65.4,7.2c-2.2,2-3.3,5-3,7.9l2-0.2c-0.3-2.3,0.6-4.7,2.4-6.2
		L65.4,7.2z M62.4,15.1c0.1,0.9,0.8,1.3,1.4,1.3c0.3,0,0.7-0.1,1-0.4c0.3-0.3,0.5-0.7,0.4-1.1l-2,0.2c0-0.2,0-0.4,0.2-0.6
		c0.2-0.1,0.3-0.2,0.4-0.2c0.1,0,0.2,0,0.3,0.1c0.1,0.1,0.2,0.2,0.2,0.4L62.4,15.1z"/>
	<path class="st5" d="M49.4,20.2c3-0.3,5.8-1.8,7.7-4.1c-0.2,0-0.4-0.1-0.6-0.1c2.7,4.9,7.7,8.5,13.1,9.6c1.6,0.3,3.2,0.5,4.8,0.4
		c0.5,0,0.5-0.8,0-0.8c-5.4,0.2-10.8-2-14.5-5.9c-1.1-1.1-2-2.4-2.7-3.7c-0.1-0.2-0.5-0.3-0.6-0.1c-1.8,2.2-4.4,3.6-7.2,3.9
		C48.9,19.5,48.9,20.3,49.4,20.2z"/>
	<defs>
		
			<filter id="Adobe_OpacityMaskFilter_00000087407699894891538900000005631563197475167160_" filterUnits="userSpaceOnUse" x="48.1" y="14.4" width="27.8" height="12.6">
			<feColorMatrix  type="matrix" values="1 0 0 0 0  0 1 0 0 0  0 0 1 0 0  0 0 0 1 0"/>
		</filter>
	</defs>
	
		<mask maskUnits="userSpaceOnUse" x="48.1" y="14.4" width="27.8" height="12.6" id="path-13-inside-2_1676_14749_00000139987368968417943090000006479356616283481479_">
		<path style="fill:#FFFFFF;filter:url(#Adobe_OpacityMaskFilter_00000087407699894891538900000005631563197475167160_);" d="
			M49.4,20.2c3-0.3,5.8-1.8,7.7-4.1c-0.2,0-0.4-0.1-0.6-0.1c2.7,4.9,7.7,8.5,13.1,9.6c1.6,0.3,3.2,0.5,4.8,0.4c0.5,0,0.5-0.8,0-0.8
			c-5.4,0.2-10.8-2-14.5-5.9c-1.1-1.1-2-2.4-2.7-3.7c-0.1-0.2-0.5-0.3-0.6-0.1c-1.8,2.2-4.4,3.6-7.2,3.9
			C48.9,19.5,48.9,20.3,49.4,20.2z"/>
	</mask>
	<path class="st10" d="M49.4,20.2l0.1,1l0,0L49.4,20.2z M57.2,16.1l0.8,0.6l1.2-1.4l-1.8-0.2L57.2,16.1z M56.6,16l0.1-1l-1.9-0.2
		l0.9,1.7L56.6,16z M69.7,25.6l0.2-1l0,0L69.7,25.6z M74.5,26.1l0,1l0,0L74.5,26.1z M74.5,25.3l0,1l0,0L74.5,25.3z M60,19.3l0.7-0.7
		l0,0L60,19.3z M57.2,15.6l0.9-0.5l0,0L57.2,15.6z M56.6,15.5l-0.8-0.6l0,0L56.6,15.5z M49.4,19.4l-0.1-1l0,0L49.4,19.4z M49.5,21.2
		c3.3-0.3,6.3-1.9,8.4-4.5l-1.5-1.3c-1.7,2.1-4.3,3.5-7.1,3.7L49.5,21.2z M57.3,15.1c-0.1,0-0.2,0-0.3,0c-0.1,0-0.2,0-0.3,0l-0.2,2
		c0.1,0,0.2,0,0.3,0c0.1,0,0.2,0,0.3,0L57.3,15.1z M55.7,16.5c2.9,5.2,8.1,8.9,13.8,10.1l0.4-2c-5.2-1.1-9.9-4.5-12.5-9.1L55.7,16.5
		z M69.5,26.6c1.6,0.4,3.3,0.5,5,0.4l-0.1-2c-1.5,0.1-3-0.1-4.5-0.4L69.5,26.6z M74.5,27.1c0.9,0,1.3-0.8,1.3-1.4
		c0-0.3-0.1-0.6-0.3-0.9c-0.3-0.3-0.7-0.5-1.1-0.4l0.1,2c-0.2,0-0.4-0.1-0.5-0.2c-0.1-0.1-0.2-0.3-0.2-0.4c0-0.1,0-0.2,0.1-0.4
		c0.1-0.1,0.3-0.2,0.4-0.2L74.5,27.1z M74.4,24.3c-5.1,0.2-10.2-1.9-13.7-5.6L59.2,20c3.9,4.1,9.6,6.5,15.3,6.2L74.4,24.3z
		 M60.7,18.6c-1-1-1.8-2.2-2.6-3.5l-1.7,1c0.8,1.4,1.7,2.7,2.9,3.9L60.7,18.6z M58.1,15.1c-0.2-0.4-0.6-0.6-1-0.7
		c-0.4-0.1-0.9,0-1.3,0.5l1.5,1.3c-0.2,0.2-0.4,0.3-0.6,0.2c-0.1,0-0.3-0.1-0.4-0.3L58.1,15.1z M55.8,14.9c-1.6,2-4,3.3-6.5,3.5
		l0.2,2c3.1-0.3,5.9-1.9,7.9-4.2L55.8,14.9z M49.3,18.4c-0.9,0.1-1.3,0.9-1.3,1.4c0,0.3,0.1,0.6,0.4,0.9c0.3,0.3,0.7,0.5,1.1,0.4
		l-0.2-2c0.2,0,0.4,0,0.5,0.2c0.1,0.2,0.2,0.3,0.2,0.4c0,0.1,0,0.2-0.1,0.3c-0.1,0.1-0.3,0.2-0.4,0.2L49.3,18.4z"/>
</g>
<path class="st0" d="M41.7,86.8c-2.2-2.2-0.8-6.9-1.9-9.6c-1.1-2.7-5.5-5.1-5.5-8.2s4.3-5.3,5.5-8.2c1.2-2.8-0.3-7.4,1.9-9.6
	c2.2-2.2,6.9-0.8,9.6-1.9c2.7-1.1,5.1-5.5,8.2-5.5c3,0,5.3,4.3,8.2,5.5c2.8,1.2,7.4-0.3,9.6,1.9c2.2,2.2,0.8,6.9,1.9,9.6
	c1.1,2.7,5.5,5.1,5.5,8.2s-4.3,5.3-5.5,8.2c-1.2,2.8,0.3,7.4-1.9,9.6c-2.2,2.2-6.9,0.8-9.6,1.9c-2.7,1.1-5.1,5.5-8.2,5.5
	c-3,0-5.3-4.3-8.2-5.5C48.5,87.5,43.9,89,41.7,86.8z"/>
<path class="st1" d="M60,82c1.7,0,3-1.1,3-2.5S61.7,77,60,77s-3,1.1-3,2.5S58.3,82,60,82z"/>
<path class="st11" d="M59.5,73v-1.4c0.9,0,1.8-0.3,2.5-0.8c0.7-0.5,1.3-1.3,1.7-2.2c0.3-0.9,0.4-1.8,0.3-2.8
	c-0.2-0.9-0.6-1.8-1.2-2.5c-0.6-0.7-1.4-1.1-2.3-1.3c-0.9-0.2-1.8-0.1-2.6,0.3c-0.8,0.4-1.5,1-2,1.8c-0.5,0.8-0.8,1.7-0.8,2.7"/>
</svg>
