<?xml version="1.0" encoding="utf-8"?>
<!-- Generator: Adobe Illustrator 27.2.0, SVG Export Plug-In . SVG Version: 6.00 Build 0)  -->
<svg version="1.1" id="레이어_1" xmlns="http://www.w3.org/2000/svg" xmlns:xlink="http://www.w3.org/1999/xlink" x="0px"
	 y="0px" viewBox="0 0 118 118" style="enable-background:new 0 0 118 118;" xml:space="preserve">
<style type="text/css">
	.st0{fill:#FFFFFF;}
	.st1{clip-path:url(#SVGID_00000139989213989871201440000016195787876521409928_);}
	.st2{fill:#FF82BB;}
	.st3{fill:#333333;}
	.st4{fill:none;stroke:#333333;stroke-miterlimit:10;}
	.st5{fill:none;stroke:#FF82BB;stroke-width:5;stroke-linecap:round;stroke-linejoin:round;}
	.st6{fill:none;stroke:#FF82BB;stroke-width:5;}
</style>
<path class="st0" d="M59,2.5L59,2.5c31.2,0,56.5,25.3,56.5,56.5l0,0c0,31.2-25.3,56.5-56.5,56.5l0,0C27.8,115.5,2.5,90.2,2.5,59l0,0
	C2.5,27.8,27.8,2.5,59,2.5z"/>
<g>
	<defs>
		<path id="SVGID_1_" d="M59,2.5L59,2.5c31.2,0,56.5,25.3,56.5,56.5l0,0c0,31.2-25.3,56.5-56.5,56.5l0,0C27.8,115.5,2.5,90.2,2.5,59
			l0,0C2.5,27.8,27.8,2.5,59,2.5z"/>
	</defs>
	<clipPath id="SVGID_00000003099244534046001860000015420669241635187357_">
		<use xlink:href="#SVGID_1_"  style="overflow:visible;"/>
	</clipPath>
	<g style="clip-path:url(#SVGID_00000003099244534046001860000015420669241635187357_);">
		<path class="st2" d="M102.2,67.8c0,18.4-19.2,33.4-42.8,33.4c-23.7,0-42.8-14.9-42.8-33.4c0-18.4,19.2-33.4,42.8-33.4
			S102.2,49.3,102.2,67.8z"/>
		<path class="st2" d="M77.5,37.8c0,12.6-8.1,22.8-18.2,22.8c-10,0-18.2-10.2-18.2-22.8S49.3,15,59.4,15S77.5,25.2,77.5,37.8z"/>
		<path class="st3" d="M52.2,24.2c0,0.9-0.5,1.7-1.1,1.7S50,25.2,50,24.2c0-0.9,0.5-1.7,1.1-1.7S52.2,23.3,52.2,24.2z"/>
		<path class="st3" d="M58.8,24.2c0,0.9-0.5,1.7-1.1,1.7s-1.1-0.7-1.1-1.7c0-0.9,0.5-1.7,1.1-1.7S58.8,23.3,58.8,24.2z"/>
		<path class="st2" d="M65.3,91.6c0,0-39.4,37.7-49.9,59.1l-30.6-23.9c-2-1.5-0.6-4.7,1.8-4.3l8.2,1.1c0,0,33.3-38.7,48.5-48.8"/>
		<path class="st2" d="M89.4,77c0,0,0.7,91.6,14.6,129.1L39.7,216c-4.1,0.6-6.4-4.6-3.2-7.2l10.8-8.7c0,0-8.8-85.3-3.8-115.5"/>
		<path class="st4" d="M56.8,29c0,1.5-0.9,2.8-2,2.8s-2-1.2-2-2.8"/>
		<path class="st3" d="M64.2,15c-0.2-2.1,0.4-4.2,1.7-5.7c1.4-1.7,3.5-2.6,5.7-2.5c2.1,0,4.2,1.1,5.4,2.8c1.2,1.7,1.7,3.8,1.2,5.8
			c-0.6,2.2-2.2,4.1-4.4,4.8c-0.5,0.2-0.3,0.9,0.2,0.8c2.1-0.8,3.8-2.4,4.6-4.5c0.9-2.2,0.6-4.6-0.6-6.6s-3.2-3.4-5.5-3.8
			c-2.4-0.4-4.8,0.3-6.6,1.9c-2,1.7-3,4.5-2.7,7C63.5,15.5,64.3,15.5,64.2,15z"/>
		<path class="st3" d="M49.5,20.2c3-0.3,5.8-1.8,7.7-4.1c-0.2,0-0.4-0.1-0.6-0.1c2.7,4.9,7.7,8.5,13.1,9.6c1.6,0.3,3.2,0.5,4.8,0.4
			c0.5,0,0.5-0.8,0-0.8c-5.4,0.2-10.8-2-14.5-5.9c-1.1-1.1-2-2.4-2.7-3.7c-0.1-0.2-0.5-0.3-0.6-0.1c-1.8,2.2-4.4,3.6-7.2,3.9
			C49,19.5,49,20.3,49.5,20.2z"/>
	</g>
</g>
<path class="st0" d="M41.7,86.8c-2.2-2.2-0.8-6.9-1.9-9.6c-1.1-2.7-5.5-5.1-5.5-8.2s4.3-5.3,5.5-8.2c1.2-2.8-0.3-7.4,1.9-9.6
	s6.9-0.8,9.6-1.9c2.7-1.1,5.1-5.5,8.2-5.5c3,0,5.3,4.3,8.2,5.5c2.8,1.2,7.4-0.3,9.6,1.9s0.8,6.9,1.9,9.6c1.1,2.7,5.5,5.1,5.5,8.2
	s-4.3,5.3-5.5,8.2c-1.2,2.8,0.3,7.4-1.9,9.6c-2.2,2.2-6.9,0.8-9.6,1.9s-5.1,5.5-8.2,5.5c-3,0-5.3-4.3-8.2-5.5
	C48.5,87.5,43.9,89,41.7,86.8z"/>
<path class="st5" d="M61,75l-6-6l6-6"/>
<path class="st6" d="M59,2.5L59,2.5c31.2,0,56.5,25.3,56.5,56.5l0,0c0,31.2-25.3,56.5-56.5,56.5l0,0C27.8,115.5,2.5,90.2,2.5,59l0,0
	C2.5,27.8,27.8,2.5,59,2.5z"/>
</svg>
