<svg width="85" height="85" viewBox="0 0 85 85" fill="none" xmlns="http://www.w3.org/2000/svg">
<g clip-path="url(#clip0_2294_365)">
<path d="M18.3828 66.1873C15.3641 63.1685 17.3656 56.8357 15.8234 53.1279C14.2813 49.4201 8.375 46.1716 8.375 42.0701C8.375 37.9685 14.2156 34.8513 15.8234 31.0123C17.4313 27.1732 15.3641 20.9716 18.3828 17.9529C21.4016 14.9341 27.7344 16.9357 31.4422 15.3935C35.15 13.8513 38.3984 7.94507 42.5 7.94507C46.6016 7.94507 49.7188 13.7857 53.5578 15.3935C57.3969 17.0013 63.5984 14.9341 66.6172 17.9529C69.6359 20.9716 67.6344 27.3044 69.1766 31.0123C70.7188 34.7201 76.625 37.9685 76.625 42.0701C76.625 46.1716 70.7844 49.2888 69.1766 53.1279C67.5688 56.9669 69.6359 63.1685 66.6172 66.1873C63.5984 69.206 57.2656 67.2044 53.5578 68.7466C49.85 70.2888 46.6016 76.1951 42.5 76.1951C38.3984 76.1951 35.2812 70.3544 31.4422 68.7466C27.6031 67.1388 21.4016 69.206 18.3828 66.1873Z" fill="#206CD8"/>
<path d="M56.9375 34.1951L37.6766 52.5701L28.0625 43.3826" stroke="white" stroke-width="10" stroke-linecap="round" stroke-linejoin="round"/>
</g>
<defs>
<clipPath id="clip0_2294_365">
<rect width="84" height="84" fill="white" transform="translate(0.5 0.0700684)"/>
</clipPath>
</defs>
</svg>
