<svg width="85" height="85" viewBox="0 0 85 85" fill="none" xmlns="http://www.w3.org/2000/svg">
<g clip-path="url(#clip0_2294_347)">
<path d="M42.5 52.5701C49.7487 52.5701 55.625 46.6938 55.625 39.4451C55.625 32.1963 49.7487 26.3201 42.5 26.3201C35.2513 26.3201 29.375 32.1963 29.375 39.4451C29.375 46.6938 35.2513 52.5701 42.5 52.5701Z" fill="#199C88"/>
<path d="M58.25 18.4451H74" stroke="white" stroke-width="8" stroke-linecap="round" stroke-linejoin="round"/>
<path d="M66.125 10.5701V26.3201" stroke="white" stroke-width="8" stroke-linecap="round" stroke-linejoin="round"/>
<path fill-rule="evenodd" clip-rule="evenodd" d="M30.1415 56.0585C26.4233 58.3408 23.4096 61.6081 21.4346 65.4983H25.4318L27.1879 71.82H57.8129L59.5689 65.4983H63.5658C61.5908 61.6081 58.5772 58.3408 54.8589 56.0585C51.1406 53.7762 46.863 52.5681 42.5002 52.5681C38.1374 52.5681 33.8598 53.7762 30.1415 56.0585Z" fill="#199C88"/>
<path d="M73.6063 37.1155C73.8716 38.7536 74.0033 40.4106 74 42.0701C74 48.3003 72.1526 54.3905 68.6913 59.5706C65.2301 64.7508 60.3104 68.7882 54.5546 71.1724C48.7987 73.5565 42.4651 74.1803 36.3547 72.9649C30.2443 71.7495 24.6315 68.7494 20.2262 64.344C15.8208 59.9387 12.8207 54.3259 11.6053 48.2155C10.3898 42.1051 11.0136 35.7715 13.3978 30.0156C15.782 24.2597 19.8194 19.3401 24.9996 15.8788C30.1797 12.4176 36.2699 10.5701 42.5 10.5701C44.1595 10.5669 45.8166 10.6986 47.4547 10.9639" stroke="white" stroke-width="10" stroke-linecap="round" stroke-linejoin="round"/>
</g>
<defs>
<clipPath id="clip0_2294_347">
<rect width="84" height="84" fill="white" transform="translate(0.5 0.0700684)"/>
</clipPath>
</defs>
</svg>
