<svg width="85" height="85" viewBox="0 0 85 85" fill="none" xmlns="http://www.w3.org/2000/svg">
<path d="M13.7134 37.706V18.4451C13.7134 17.7489 13.9899 17.0812 14.4822 16.5889C14.9745 16.0966 15.6422 15.8201 16.3384 15.8201H68.8384C69.5346 15.8201 70.2023 16.0966 70.6945 16.5889C71.1868 17.0812 71.4634 17.7489 71.4634 18.4451V37.706C71.4634 65.2685 48.0681 74.3904 43.4087 75.9326C42.8794 76.1285 42.2974 76.1285 41.7681 75.9326C37.1087 74.3904 13.7134 65.2685 13.7134 37.706Z" fill="#FEC637"/>
<path d="M72.2476 4.78906V13.7425" stroke="#ED562F" stroke-width="7" stroke-linecap="round" stroke-linejoin="round"/>
<path d="M63.7358 10.9683L72.2416 13.7438" stroke="#ED562F" stroke-width="7" stroke-linecap="round" stroke-linejoin="round"/>
<path d="M66.98 20.9945L72.2401 13.7422" stroke="#ED562F" stroke-width="7" stroke-linecap="round" stroke-linejoin="round"/>
<path d="M77.5077 20.9945L72.2476 13.7422" stroke="#ED562F" stroke-width="7" stroke-linecap="round" stroke-linejoin="round"/>
<path d="M80.7533 10.9683L72.2476 13.7438" stroke="#ED562F" stroke-width="7" stroke-linecap="round" stroke-linejoin="round"/>
<path d="M39.9516 36.8792V29.3286H31.646" stroke="white" stroke-width="7" stroke-linecap="round" stroke-linejoin="round"/>
<path d="M52.5987 36.8791L52.5987 44.4297L60.9043 44.4297" stroke="white" stroke-width="7" stroke-linecap="round" stroke-linejoin="round"/>
<path d="M43.9155 57.6433L33.5335 57.6433L33.5335 48.2051L43.9155 48.2051" stroke="white" stroke-width="7" stroke-linecap="round" stroke-linejoin="round"/>
<path d="M15.4463 77.6202L22.3604 68.0876" stroke="#ED562F" stroke-width="7" stroke-linecap="round" stroke-linejoin="round"/>
</svg>
