<svg width="64" height="45" viewBox="0 0 64 45" fill="none" xmlns="http://www.w3.org/2000/svg">
<path fill-rule="evenodd" clip-rule="evenodd" d="M43.6261 0.0700684C54.4754 0.0700684 63.2705 8.86516 63.2705 19.7144C63.2705 24.12 61.8203 28.1869 59.3711 31.4636C59.1252 32.1771 58.5693 32.9369 57.6553 33.7455C47.2321 42.9664 37.4764 44.1691 33.2001 44.57C36.2591 43.3465 37.3728 40.8102 37.9329 39.5347C37.9599 39.473 37.9857 39.4143 38.0104 39.3588H20.3736C9.52431 39.3588 0.729229 30.5637 0.729229 19.7144C0.729229 8.86516 9.52432 0.0700684 20.3736 0.0700684H43.6261Z" fill="#4D8DE7"/>
<path d="M29.4374 18.7101C28.2974 18.0701 27.1574 17.4101 25.9374 16.6301C24.5774 15.7501 24.0174 14.7301 24.0174 13.2501V12.2701C24.0174 11.5101 23.3974 11.1701 22.7174 11.1701C22.0374 11.1701 21.4174 11.5101 21.4174 12.2701V13.2501C21.4174 14.7301 20.8574 15.7501 19.4974 16.6301C18.2774 17.4101 17.1374 18.0701 15.9974 18.7101C15.4574 19.0101 15.4774 19.7701 15.7774 20.2701C16.0974 20.7901 16.7174 21.0701 17.2774 20.7701C18.5774 20.0501 19.7374 19.3701 20.8174 18.6701C22.0174 17.8901 22.5974 17.1901 22.7174 16.6701H22.7374C22.8374 17.1301 23.4174 17.8301 24.6174 18.6101C25.6974 19.3101 26.8574 19.9901 28.1574 20.7101C28.7174 21.0101 29.3574 20.7301 29.6574 20.2301C29.9374 19.7501 29.9774 19.0101 29.4374 18.7101ZM23.9974 24.0901V21.4301C23.9974 20.6901 23.3774 20.3501 22.7174 20.3501C22.0574 20.3501 21.4374 20.6901 21.4374 21.4301V24.0901H15.1574C14.5374 24.0901 14.2574 24.5901 14.2574 25.1701C14.2574 25.7501 14.5374 26.2501 15.1574 26.2501H30.2774C30.8974 26.2501 31.1774 25.7501 31.1774 25.1701C31.1774 24.5901 30.8974 24.0901 30.2774 24.0901H23.9974ZM37.1805 14.0901C37.5205 14.0901 37.6405 14.2101 37.6405 14.5501V15.6101C37.6405 18.2901 37.5005 18.6101 32.9405 21.7701C32.3805 22.1501 32.4805 22.9101 32.8205 23.3901C33.1605 23.8701 33.8805 24.0901 34.4005 23.7301C39.6805 19.9901 40.1005 19.3301 40.1005 15.6901V13.5701C40.1005 12.3101 39.6805 11.9101 38.4005 11.9101H33.6205C33.0005 11.9101 32.7205 12.4101 32.7205 13.0101C32.7205 13.5901 33.0005 14.0901 33.6205 14.0901H37.1805ZM44.1805 11.6101C44.1805 10.9301 43.6005 10.6101 43.0005 10.6101C42.4205 10.6101 41.8405 10.9301 41.8405 11.6101V26.0501C41.8405 26.7301 42.4205 27.0501 43.0005 27.0501C43.6005 27.0501 44.1805 26.7301 44.1805 26.0501V18.5901H45.9005V26.8901C45.9005 27.5701 46.4805 27.8901 47.0805 27.8901C47.6805 27.8901 48.2605 27.5701 48.2605 26.8901V11.4101C48.2605 10.7301 47.6805 10.4101 47.0805 10.4101C46.4805 10.4101 45.9005 10.7301 45.9005 11.4101V16.4301H44.1805V11.6101Z" fill="white"/>
</svg>
