<svg width="216" height="59" viewBox="0 0 216 59" fill="none" xmlns="http://www.w3.org/2000/svg">
<g clip-path="url(#clip0_1702_15149)">
<path d="M29.125 0H0.0849609V8.37H29.125V0Z" fill="#E60012"/>
<path d="M29.125 12H0.0849609V20.37H29.125V12Z" fill="#E60012"/>
<path d="M29.1151 0H20.7451V29.04H29.1151V0Z" fill="#E60012"/>
<path d="M58.1552 0H39.8252V8.37H58.1552V0Z" fill="#004EA2"/>
<path d="M58.1552 0H49.7852V18.33H58.1552V0Z" fill="#004EA2"/>
<path d="M18.415 49.7H0.0849609V58.07H18.415V49.7Z" fill="#004EA2"/>
<path d="M8.45496 39.74H0.0849609V58.07H8.45496V39.74Z" fill="#004EA2"/>
<path d="M58.165 29.04H29.125V37.41H58.165V29.04Z" fill="#009944"/>
<path d="M58.165 49.7H29.125V58.07H58.165V49.7Z" fill="#009944"/>
<path d="M37.495 29.04H29.125V58.08H37.495V29.04Z" fill="#009944"/>
<path d="M93.9445 24.7899C93.9445 28.2299 93.5845 31.3799 92.8545 34.2299C92.1245 37.0799 91.0445 39.6799 89.5945 42.0099C88.1545 44.3399 86.3545 46.4299 84.2045 48.2699C82.0545 50.1099 79.5645 51.7599 76.7245 53.1999L72.6445 47.0699C74.8745 45.8699 76.7945 44.5999 78.3945 43.2599C79.9945 41.9099 81.3445 40.4899 82.4345 38.9999H73.5545V31.8999H85.6045C85.7545 31.1999 85.8645 30.4999 85.9545 29.7899C86.0345 29.0799 86.0945 28.3499 86.1145 27.5999H73.5645V20.3099H93.9545V24.7899H93.9445ZM97.9545 19.1799H105.605V53.5699H97.9545V19.1799Z" fill="#E60012"/>
<path d="M110.515 19.3701H141.095V24.7501H117.975V27.1101H141.275V32.4901H110.515V19.3701ZM141.465 53.9501H133.815V47.1801H110.335V41.7601H141.465V53.9501ZM108.875 34.3301H143.095V39.9401H108.875V34.3301Z" fill="#004EA2"/>
<path d="M166.765 24.7899C166.765 28.2299 166.405 31.3799 165.675 34.2299C164.945 37.0799 163.865 39.6799 162.415 42.0099C160.975 44.3399 159.175 46.4299 157.025 48.2699C154.875 50.1099 152.385 51.7599 149.545 53.1999L145.465 47.0699C147.695 45.8699 149.615 44.5999 151.215 43.2599C152.815 41.9099 154.165 40.4899 155.255 38.9999H146.375V31.8999H158.425C158.575 31.1999 158.685 30.4999 158.775 29.7899C158.855 29.0799 158.915 28.3499 158.935 27.5999H146.375V20.3099H166.765V24.7899ZM170.765 19.1799H178.415V53.5699H170.765V19.1799Z" fill="#009944"/>
<path d="M183.325 19.3701H213.905V24.7501H190.785V27.1101H214.085V32.4901H183.325V19.3701ZM214.275 53.9501H206.625V47.1801H183.145V41.7601H214.275V53.9501ZM181.695 34.3301H215.915V39.9401H181.695V34.3301Z" fill="#004EA2"/>
<path d="M82.7664 8.95992H72.5664V7.39992H76.6104V6.52392H75.3264C74.9744 6.52392 74.6504 6.47192 74.3544 6.36792C74.0664 6.26392 73.8144 6.11592 73.5984 5.92392C73.3904 5.73192 73.2264 5.49592 73.1064 5.21592C72.9864 4.92792 72.9264 4.60392 72.9264 4.24392C72.9264 3.88392 72.9864 3.56392 73.1064 3.28392C73.2264 2.99592 73.3904 2.75592 73.5984 2.56392C73.8144 2.37192 74.0664 2.22392 74.3544 2.11992C74.6504 2.01592 74.9744 1.96392 75.3264 1.96392H80.0064C80.3584 1.96392 80.6784 2.01592 80.9664 2.11992C81.2624 2.22392 81.5144 2.37192 81.7224 2.56392C81.9384 2.75592 82.1064 2.99592 82.2264 3.28392C82.3464 3.56392 82.4064 3.88392 82.4064 4.24392C82.4064 4.60392 82.3464 4.92792 82.2264 5.21592C82.1064 5.49592 81.9384 5.73192 81.7224 5.92392C81.5144 6.11592 81.2624 6.26392 80.9664 6.36792C80.6784 6.47192 80.3584 6.52392 80.0064 6.52392H78.7224V7.39992H82.7664V8.95992ZM82.1904 12.9799H73.2624V9.49992H75.2544V11.3959H82.1904V12.9799ZM79.6824 4.98792C79.9384 4.98792 80.1224 4.91592 80.2344 4.77192C80.3544 4.62792 80.4144 4.45192 80.4144 4.24392C80.4144 4.03592 80.3544 3.85992 80.2344 3.71592C80.1224 3.57192 79.9384 3.49992 79.6824 3.49992H75.6504C75.3944 3.49992 75.2064 3.57192 75.0864 3.71592C74.9744 3.85992 74.9184 4.03592 74.9184 4.24392C74.9184 4.45192 74.9744 4.62792 75.0864 4.77192C75.2064 4.91592 75.3944 4.98792 75.6504 4.98792H79.6824Z" fill="#545454"/>
<path d="M93.5334 12.9439H91.7454V7.79592H91.1094V12.9439H89.3334V1.99992H91.1094V5.94792H91.7454V1.99992H93.5334V12.9439ZM88.7814 12.2719H86.9814L86.5374 4.59192C86.5214 4.37592 86.4494 4.26792 86.3214 4.26792H86.2254C86.0894 4.26792 86.0174 4.37592 86.0094 4.59192L85.3494 12.2719H83.5494L84.2814 4.26792H83.6214V2.65992H85.3254V1.43592H87.2214V2.65992H88.9734V4.26792H88.2654L88.7814 12.2719Z" fill="#545454"/>
<path d="M104.324 11.8159C104.324 12.2399 104.236 12.5399 104.06 12.7159C103.884 12.8919 103.584 12.9799 103.16 12.9799H95.2764V9.79992C95.2764 9.43992 95.3364 9.19992 95.4564 9.07992C95.5764 8.95992 95.8164 8.89992 96.1764 8.89992H98.7444V8.22792H94.7004V6.66792H104.9V8.22792H100.856V8.89992H104.324V11.8159ZM102.14 1.96392C102.492 1.96392 102.812 2.01192 103.1 2.10792C103.396 2.19592 103.648 2.32792 103.856 2.50392C104.072 2.67992 104.24 2.89992 104.36 3.16392C104.48 3.41992 104.54 3.71592 104.54 4.05192C104.54 4.38792 104.48 4.68792 104.36 4.95192C104.24 5.20792 104.072 5.42392 103.856 5.59992C103.648 5.77592 103.396 5.91192 103.1 6.00792C102.812 6.09592 102.492 6.13992 102.14 6.13992H97.4604C97.1084 6.13992 96.7844 6.09592 96.4884 6.00792C96.2004 5.91192 95.9484 5.77592 95.7324 5.59992C95.5244 5.42392 95.3604 5.20792 95.2404 4.95192C95.1204 4.68792 95.0604 4.38792 95.0604 4.05192C95.0604 3.71592 95.1204 3.41992 95.2404 3.16392C95.3604 2.89992 95.5244 2.67992 95.7324 2.50392C95.9484 2.32792 96.2004 2.19592 96.4884 2.10792C96.7844 2.01192 97.1084 1.96392 97.4604 1.96392H102.14ZM101.816 4.60392C102.072 4.60392 102.256 4.55192 102.368 4.44792C102.488 4.34392 102.548 4.21192 102.548 4.05192C102.548 3.89192 102.488 3.75992 102.368 3.65592C102.256 3.55192 102.072 3.49992 101.816 3.49992H97.7844C97.5284 3.49992 97.3404 3.55192 97.2204 3.65592C97.1084 3.75992 97.0524 3.89192 97.0524 4.05192C97.0524 4.21192 97.1084 4.34392 97.2204 4.44792C97.3404 4.55192 97.5284 4.60392 97.7844 4.60392H101.816ZM102.332 11.4199V10.4599H97.2684V11.4199H102.332Z" fill="#545454"/>
<path d="M115.245 6.21192C115.245 6.63592 115.173 7.00792 115.029 7.32792C114.893 7.63992 114.697 7.89992 114.441 8.10792C114.185 8.30792 113.877 8.45992 113.517 8.56392C113.157 8.65992 112.761 8.70792 112.329 8.70792C111.897 8.70792 111.501 8.65992 111.141 8.56392C110.781 8.45992 110.473 8.30792 110.217 8.10792C109.961 7.89992 109.761 7.63992 109.617 7.32792C109.481 7.00792 109.413 6.63592 109.413 6.21192V5.05992C109.413 4.86792 109.449 4.66392 109.521 4.44792C109.593 4.22392 109.677 4.04792 109.773 3.91992H109.017V2.40792H111.333V1.31592H113.325V2.40792H115.641V3.91992H114.885C114.973 4.04792 115.053 4.22392 115.125 4.44792C115.205 4.66392 115.245 4.86792 115.245 5.05992V6.21192ZM118.197 10.2439H116.205V1.99992H118.197V4.73592H119.493V6.41592H118.197V10.2439ZM118.269 12.9199H109.713V9.19992H111.705V11.2639H118.269V12.9199ZM113.253 5.10792C113.253 4.61192 113.181 4.27192 113.037 4.08792C112.901 3.89592 112.665 3.79992 112.329 3.79992C111.993 3.79992 111.753 3.89592 111.609 4.08792C111.473 4.27192 111.405 4.61192 111.405 5.10792V5.88792C111.405 6.38392 111.473 6.72792 111.609 6.91992C111.753 7.10392 111.993 7.19592 112.329 7.19592C112.665 7.19592 112.901 7.10392 113.037 6.91992C113.181 6.72792 113.253 6.38392 113.253 5.88792V5.10792Z" fill="#545454"/>
<path d="M130.344 7.36392H120.144V5.87592H130.344V7.36392ZM129.888 12.9799H120.72V9.83592H127.776V9.30792H120.696V7.95192H129.768V10.1719C129.768 10.5319 129.708 10.7719 129.588 10.8919C129.468 11.0119 129.228 11.0719 128.868 11.0719H122.712V11.5999H129.888V12.9799ZM129.516 5.49192H127.524L127.704 3.84792C127.728 3.62392 127.616 3.51192 127.368 3.51192H120.78V2.02392H129.216C129.424 2.02392 129.584 2.08392 129.696 2.20392C129.808 2.32392 129.852 2.48392 129.828 2.68392L129.516 5.49192Z" fill="#545454"/>
<path d="M141.111 12.9439H139.323V7.79592H138.687V12.9439H136.911V1.99992H138.687V5.94792H139.323V1.99992H141.111V12.9439ZM136.263 9.78792C136.263 10.2039 136.203 10.5759 136.083 10.9039C135.963 11.2319 135.795 11.5079 135.579 11.7319C135.363 11.9639 135.107 12.1399 134.811 12.2599C134.515 12.3879 134.191 12.4519 133.839 12.4519C133.487 12.4519 133.163 12.3879 132.867 12.2599C132.571 12.1399 132.315 11.9639 132.099 11.7319C131.883 11.5079 131.715 11.2319 131.595 10.9039C131.475 10.5759 131.415 10.2039 131.415 9.78792V7.30392C131.415 6.88792 131.475 6.51592 131.595 6.18792C131.715 5.85992 131.883 5.58392 132.099 5.35992C132.315 5.12792 132.571 4.95192 132.867 4.83192C133.163 4.70392 133.487 4.63992 133.839 4.63992C134.191 4.63992 134.515 4.70392 134.811 4.83192C135.107 4.95192 135.363 5.12792 135.579 5.35992C135.795 5.58392 135.963 5.85992 136.083 6.18792C136.203 6.51592 136.263 6.88792 136.263 7.30392V9.78792ZM136.503 4.31592H131.175V2.70792H132.891V1.43592H134.787V2.70792H136.503V4.31592ZM133.215 9.43992C133.215 9.90392 133.271 10.2559 133.383 10.4959C133.503 10.7279 133.655 10.8439 133.839 10.8439C134.023 10.8439 134.171 10.7279 134.283 10.4959C134.403 10.2559 134.463 9.90392 134.463 9.43992V7.65192C134.463 7.18792 134.403 6.83992 134.283 6.60792C134.171 6.36792 134.023 6.24792 133.839 6.24792C133.655 6.24792 133.503 6.36792 133.383 6.60792C133.271 6.83992 133.215 7.18792 133.215 7.65192V9.43992Z" fill="#545454"/>
<path d="M151.902 12.9799H149.91V10.4839H142.854V8.89992H151.902V12.9799ZM151.854 6.13992H142.914V2.82792C142.914 2.54792 142.978 2.34392 143.106 2.21592C143.234 2.08792 143.438 2.02392 143.718 2.02392H151.782V3.55992H144.906V4.60392H151.854V6.13992ZM152.478 8.29992H142.278V6.73992H152.478V8.29992Z" fill="#545454"/>
<path d="M166.254 12.9439H164.262V1.99992H166.254V12.9439ZM163.542 12.1519H161.55L160.698 3.97992C160.674 3.77192 160.59 3.66792 160.446 3.66792H160.146C160.066 3.66792 160.006 3.69992 159.966 3.76392C159.934 3.81992 159.91 3.89192 159.894 3.97992L158.826 12.1519H156.834L157.998 3.66792H156.918V2.05992H163.782V3.66792H162.594L163.542 12.1519Z" fill="#545454"/>
<path d="M170.673 6.23592C169.921 6.23592 169.325 6.05192 168.885 5.68392C168.445 5.31592 168.225 4.76792 168.225 4.03992C168.225 3.31192 168.445 2.76792 168.885 2.40792C169.325 2.03992 169.921 1.85592 170.673 1.85592H171.921C172.673 1.85592 173.269 2.03992 173.709 2.40792C174.149 2.76792 174.369 3.31192 174.369 4.03992C174.369 4.76792 174.149 5.31592 173.709 5.68392C173.269 6.05192 172.673 6.23592 171.921 6.23592H170.673ZM177.321 10.7839H175.329V9.88392H173.325V8.45592H175.329V1.99992H177.321V10.7839ZM177.393 12.9199H168.597V9.73992H170.589V11.3479H177.393V12.9199ZM174.897 8.07192H172.293V9.43992H170.181V8.07192H168.009V6.59592H174.897V8.07192ZM171.573 4.74792C171.829 4.74792 172.025 4.68792 172.161 4.56792C172.305 4.44792 172.377 4.27192 172.377 4.03992C172.377 3.80792 172.305 3.63592 172.161 3.52392C172.025 3.40392 171.829 3.34392 171.573 3.34392H171.021C170.765 3.34392 170.565 3.40392 170.421 3.52392C170.285 3.63592 170.217 3.80792 170.217 4.03992C170.217 4.27192 170.285 4.44792 170.421 4.56792C170.565 4.68792 170.765 4.74792 171.021 4.74792H171.573Z" fill="#545454"/>
<path d="M191.697 12.9439H189.705V1.99992H191.697V12.9439ZM188.757 12.1519H186.765V3.66792H186.093C185.893 3.66792 185.745 3.73592 185.649 3.87192C185.553 3.99992 185.485 4.17992 185.445 4.41192L184.173 12.1519H182.181L183.477 4.36392C183.541 3.98792 183.625 3.65592 183.729 3.36792C183.833 3.07992 183.973 2.83992 184.149 2.64792C184.325 2.45592 184.545 2.31192 184.809 2.21592C185.073 2.11192 185.397 2.05992 185.781 2.05992H188.757V12.1519Z" fill="#545454"/>
<path d="M203.22 8.83992H201.204L199.92 4.06392C199.88 3.94392 199.82 3.85192 199.74 3.78792C199.668 3.71592 199.54 3.67992 199.356 3.67992H197.172C196.988 3.67992 196.856 3.71592 196.776 3.78792C196.704 3.85192 196.648 3.94392 196.608 4.06392L195.324 8.83992H193.308L194.748 3.58392C194.82 3.31992 194.904 3.09592 195 2.91192C195.096 2.72792 195.216 2.57992 195.36 2.46792C195.512 2.34792 195.704 2.25992 195.936 2.20392C196.168 2.14792 196.46 2.11992 196.812 2.11992H199.716C200.068 2.11992 200.36 2.14792 200.592 2.20392C200.824 2.25992 201.012 2.34792 201.156 2.46792C201.308 2.57992 201.432 2.72792 201.528 2.91192C201.624 3.09592 201.708 3.31992 201.78 3.58392L203.22 8.83992ZM203.364 12.2239H193.164V10.6639H203.364V12.2239Z" fill="#545454"/>
<path d="M214.131 11.7799C214.131 12.2039 214.043 12.5039 213.867 12.6799C213.691 12.8559 213.391 12.9439 212.967 12.9439H205.407V9.57192C205.407 9.21192 205.467 8.97192 205.587 8.85192C205.707 8.73192 205.947 8.67192 206.307 8.67192H214.131V11.7799ZM209.367 7.96392H204.495V2.86392C204.495 2.58392 204.559 2.37992 204.687 2.25192C204.815 2.12392 205.019 2.05992 205.299 2.05992H208.935V3.49992H206.295V4.30392H208.731V5.71992H206.295V6.52392H209.367V7.96392ZM211.791 8.23992H210.015V5.69592H209.067V4.06392H210.015V1.99992H211.791V8.23992ZM214.131 8.23992H212.343V1.99992H214.131V8.23992ZM212.139 11.3839V10.2319H207.399V11.3839H212.139Z" fill="#545454"/>
</g>
<defs>
<clipPath id="clip0_1702_15149">
<rect width="215.83" height="58.07" fill="white" transform="translate(0.0849609)"/>
</clipPath>
</defs>
</svg>
